<svg xmlns="http://www.w3.org/2000/svg" xmlns:xlink="http://www.w3.org/1999/xlink" width="554" height="322" viewBox="0 0 554 322">
  <defs>
    <path id="chart-a" d="M0,0 L428,0 L428,252 L0,252 L0,0 Z"/>
    <circle id="chart-d" cx="9" cy="9" r="9"/>
    <filter id="chart-c" width="266.7%" height="266.7%" x="-83.3%" y="-83.3%" filterUnits="objectBoundingBox">
      <feOffset in="SourceAlpha" result="shadowOffsetOuter1"/>
      <feGaussianBlur in="shadowOffsetOuter1" result="shadowBlurOuter1" stdDeviation="5"/>
      <feColorMatrix in="shadowBlurOuter1" values="0 0 0 0 0.184313725   0 0 0 0 0.219607843   0 0 0 0 0.262745098  0 0 0 0.3 0"/>
    </filter>
    <circle id="chart-f" cx="9" cy="9" r="9"/>
    <filter id="chart-e" width="266.7%" height="266.7%" x="-83.3%" y="-83.3%" filterUnits="objectBoundingBox">
      <feOffset in="SourceAlpha" result="shadowOffsetOuter1"/>
      <feGaussianBlur in="shadowOffsetOuter1" result="shadowBlurOuter1" stdDeviation="5"/>
      <feColorMatrix in="shadowBlurOuter1" values="0 0 0 0 0.803921569   0 0 0 0 0.133333333   0 0 0 0 0.0666666667  0 0 0 0.3 0"/>
    </filter>
  </defs>
  <g fill="none" fill-rule="evenodd" transform="translate(-58 -74)">
    <rect width="650" height="414" x="23"/>
    <g stroke="#DADADA" stroke-dasharray="1 3" stroke-linecap="square" stroke-opacity=".6" transform="translate(112 113)">
      <path d="M0 43.5L424 43.5M0 85.5L424 85.5M0 127.5L424 127.5M0 169.5L424 169.5M0 211.5L424 211.5"/>
    </g>
    <g transform="translate(0 63)">
      <g transform="translate(108 52)">
        <mask id="chart-b" fill="#fff">
          <use xlink:href="#chart-a"/>
        </mask>
        <use stroke="#DADADA" stroke-dasharray="2 3" stroke-opacity=".6" xlink:href="#chart-a"/>
        <path stroke="#CD2211" stroke-width="2" d="M-213,175.203507 C-170.099662,175.203507 -196.867017,267.150936 -152.500097,267.150943 C-108.133177,267.150949 -69.5548419,217.79741 -28.0383861,217.79741 C13.4780698,217.79741 36.2295974,123.127749 78.7478929,123.127749 C121.266188,123.127749 89.5579148,85.5768077 132.531662,85.5768077 C175.505409,85.5768078 176.273996,99.7010242 221.001756,99.7010249 C265.729516,99.7010256 277.119822,82.2118696 304.257261,119.624037 C331.394699,157.036205 334.558088,174.681399 375.777805,174.681406 C416.997522,174.681414 452.146802,85.5768096 495.120574,85.5768077 C538.094346,85.5768058 523.493216,105.984764 567.343986,105.98476 C611.194757,105.984757 609.344251,119.624036 652.317999,119.624037 C695.291746,119.624038 694.149201,89.4618524 738,89.4618516" mask="url(#chart-b)"/>
        <path stroke="#2F3843" stroke-width="2" d="M-75.0693136,140.037974 C-34.4268717,140.037974 -50.2394517,253.098389 -8.20761542,253.098396 C33.8242209,253.098402 10.9644717,140.037974 50.2958671,140.037974 C89.6272624,140.037974 52.4990971,48.3150646 92.7796041,48.3150648 C133.060111,48.315065 113.360687,34.5700703 154.072674,34.5700704 C194.784662,34.5700705 216.793245,58.0538912 259.16693,58.0538918 C301.540615,58.0538925 266.480144,58.0538918 300.965219,58.0538918 C335.450295,58.0538918 335.450295,30.4376678 382.81251,30.4376678 C430.174725,30.4376678 432.182289,-33.0795848 472.894301,-33.0795867 C513.606312,-33.0795886 521.576334,69.9069902 563.119186,69.9069866 C604.662038,69.906983 603.692081,19.5518798 644.40407,19.551881 C685.116058,19.5518823 685.457121,1.00000084 727,1" mask="url(#chart-b)"/>
      </g>
      <path stroke="#CD2211" stroke-dasharray="1 3" stroke-linecap="square" d="M367,152 L367,304"/>
      <path stroke="#2F3843" stroke-dasharray="1 3" stroke-linecap="square" d="M451,96 L451,304"/>
      <g fill="#222" transform="translate(0 35)">
        <path d="M86.602 12.292L82.598 12.292 82.066 15.148 82.094 15.176C82.3086677 14.9333321 82.5863316 14.7536673 82.927 14.637 83.2676684 14.5203327 83.6059983 14.462 83.942 14.462 84.3806689 14.462 84.795998 14.5319993 85.188 14.672 85.580002 14.8120007 85.9206652 15.0243319 86.21 15.309 86.4993348 15.5936681 86.7279992 15.9483312 86.896 16.373 87.0640008 16.7976688 87.148 17.2946638 87.148 17.864 87.148 18.2840021 87.0756674 18.6923313 86.931 19.089 86.7863326 19.4856687 86.5693348 19.8379985 86.28 20.146 85.9906652 20.4540015 85.6290022 20.6989991 85.195 20.881 84.7609978 21.0630009 84.2546696 21.154 83.676 21.154 83.2466645 21.154 82.8430019 21.0910006 82.465 20.965 82.0869981 20.8389994 81.7533348 20.6570012 81.464 20.419 81.1746652 20.1809988 80.9460008 19.8846684 80.778 19.53 80.6099992 19.1753316 80.5213334 18.7740022 80.512 18.326L81.702 18.326C81.7206668 18.5780013 81.7836661 18.8136656 81.891 19.033 81.9983339 19.2523344 82.1429991 19.4436658 82.325 19.607 82.5070009 19.7703342 82.7216654 19.8963329 82.969 19.985 83.2163346 20.0736671 83.4893318 20.118 83.788 20.118 84.0680014 20.118 84.336332 20.0690005 84.593 19.971 84.8496679 19.8729995 85.0736657 19.726001 85.265 19.53 85.4563343 19.333999 85.6079994 19.0890015 85.72 18.795 85.8320006 18.5009985 85.888 18.158002 85.888 17.766 85.888 17.4393317 85.8343339 17.1383347 85.727 16.863 85.6196661 16.5876653 85.468001 16.3496677 85.272 16.149 85.075999 15.9483323 84.8403347 15.7920006 84.565 15.68 84.2896653 15.5679994 83.9840017 15.512 83.648 15.512 83.255998 15.512 82.9083348 15.5983325 82.605 15.771 82.3016651 15.9436675 82.0333345 16.1699986 81.8 16.45L80.778 16.394 81.702 11.242 86.602 11.242 86.602 12.292zM88.926 11.004L90.746 11.004 93.896 19.404 97.06 11.004 98.88 11.004 98.88 21 97.62 21 97.62 12.684 97.592 12.684 94.47 21 93.336 21 90.214 12.684 90.186 12.684 90.186 21 88.926 21 88.926 11.004zM68.962 56.588C68.9339999 56.0839975 68.9853327 55.6173355 69.116 55.188 69.2466673 54.7586645 69.4496653 54.3876682 69.725 54.075 70.0003347 53.7623318 70.3433313 53.5173342 70.754 53.34 71.1646687 53.1626658 71.6313307 53.074 72.154 53.074 72.5833355 53.074 72.9869981 53.1369994 73.365 53.263 73.7430019 53.3890006 74.0719986 53.5709988 74.352 53.809 74.6320014 54.0470012 74.8536658 54.3433316 75.017 54.698 75.1803342 55.0526684 75.262 55.463331 75.262 55.93 75.262 56.3686689 75.194334 56.7559983 75.059 57.092 74.923666 57.4280017 74.7440011 57.7289987 74.52 57.995 74.2959989 58.2610013 74.0393348 58.5013323 73.75 58.716 73.4606652 58.9306677 73.1620015 59.135999 72.854 59.332 72.5459985 59.5186676 72.2380015 59.7029991 71.93 59.885 71.6219985 60.0670009 71.339668 60.2606656 71.083 60.466 70.8263321 60.6713344 70.6070009 60.8929988 70.425 61.131 70.2429991 61.3690012 70.1240003 61.6419985 70.068 61.95L75.164 61.95 75.164 63 68.682 63C68.7286669 62.4119971 68.8336659 61.9103354 68.997 61.495 69.1603342 61.0796646 69.3679987 60.7180015 69.62 60.41 69.8720013 60.1019985 70.1566651 59.8313345 70.474 59.598 70.7913349 59.3646655 71.1226649 59.1453344 71.468 58.94 71.8880021 58.6786654 72.2566651 58.4383344 72.574 58.219 72.8913349 57.9996656 73.154999 57.7780011 73.365 57.554 73.5750011 57.3299989 73.7336661 57.0873346 73.841 56.826 73.9483339 56.5646654 74.002 56.2613351 74.002 55.916 74.002 55.645332 73.9506672 55.4003344 73.848 55.181 73.7453328 54.9616656 73.6076675 54.7726675 73.435 54.614 73.2623325 54.4553325 73.0593345 54.3340004 72.826 54.25 72.5926655 54.1659996 72.3453346 54.124 72.084 54.124 71.7386649 54.124 71.4423346 54.1963326 71.195 54.341 70.9476654 54.4856674 70.7446675 54.6746655 70.586 54.908 70.4273325 55.1413345 70.3130004 55.4049985 70.243 55.699 70.1729997 55.9930015 70.1426666 56.2893318 70.152 56.588L68.962 56.588zM77.292 61.446L78.846 61.446 78.846 63 77.292 63 77.292 61.446zM86.602 54.292L82.598 54.292 82.066 57.148 82.094 57.176C82.3086677 56.9333321 82.5863316 56.7536672 82.927 56.637 83.2676684 56.5203328 83.6059983 56.462 83.942 56.462 84.3806689 56.462 84.795998 56.5319993 85.188 56.672 85.580002 56.8120007 85.9206652 57.0243319 86.21 57.309 86.4993348 57.5936681 86.7279992 57.9483312 86.896 58.373 87.0640008 58.7976688 87.148 59.2946638 87.148 59.864 87.148 60.2840021 87.0756674 60.6923314 86.931 61.089 86.7863326 61.4856687 86.5693348 61.8379985 86.28 62.146 85.9906652 62.4540015 85.6290022 62.6989991 85.195 62.881 84.7609978 63.0630009 84.2546696 63.154 83.676 63.154 83.2466645 63.154 82.8430019 63.0910006 82.465 62.965 82.0869981 62.8389994 81.7533348 62.6570012 81.464 62.419 81.1746652 62.1809988 80.9460008 61.8846684 80.778 61.53 80.6099992 61.1753316 80.5213334 60.7740022 80.512 60.326L81.702 60.326C81.7206668 60.5780013 81.7836661 60.8136656 81.891 61.033 81.9983339 61.2523344 82.1429991 61.4436659 82.325 61.607 82.5070009 61.7703341 82.7216654 61.8963329 82.969 61.985 83.2163346 62.0736671 83.4893318 62.118 83.788 62.118 84.0680014 62.118 84.336332 62.0690005 84.593 61.971 84.849668 61.8729995 85.0736657 61.726001 85.265 61.53 85.4563343 61.333999 85.6079994 61.0890015 85.72 60.795 85.8320006 60.5009985 85.888 60.158002 85.888 59.766 85.888 59.4393317 85.8343339 59.1383347 85.727 58.863 85.6196661 58.5876653 85.468001 58.3496677 85.272 58.149 85.075999 57.9483323 84.8403347 57.7920006 84.565 57.68 84.2896653 57.5679994 83.9840017 57.512 83.648 57.512 83.255998 57.512 82.9083349 57.5983325 82.605 57.771 82.3016652 57.9436675 82.0333345 58.1699986 81.8 58.45L80.778 58.394 81.702 53.242 86.602 53.242 86.602 54.292zM88.926 53.004L90.746 53.004 93.896 61.404 97.06 53.004 98.88 53.004 98.88 63 97.62 63 97.62 54.684 97.592 54.684 94.47 63 93.336 63 90.214 54.684 90.186 54.684 90.186 63 88.926 63 88.926 53.004zM73.33 105L72.14 105 72.14 97.888 69.564 97.888 69.564 96.936C69.9000017 96.936 70.2266651 96.9103336 70.544 96.859 70.8613349 96.8076664 71.1483321 96.7120007 71.405 96.572 71.661668 96.4319993 71.8786658 96.2406679 72.056 95.998 72.2333342 95.7553321 72.3546663 95.4473352 72.42 95.074L73.33 95.074 73.33 105zM77.292 103.446L78.846 103.446 78.846 105 77.292 105 77.292 103.446zM86.602 96.292L82.598 96.292 82.066 99.148 82.094 99.176C82.3086677 98.9333321 82.5863316 98.7536673 82.927 98.637 83.2676684 98.5203327 83.6059983 98.462 83.942 98.462 84.3806689 98.462 84.795998 98.5319993 85.188 98.672 85.580002 98.8120007 85.9206652 99.0243319 86.21 99.309 86.4993348 99.5936681 86.7279992 99.9483312 86.896 100.373 87.0640008 100.797669 87.148 101.294664 87.148 101.864 87.148 102.284002 87.0756674 102.692331 86.931 103.089 86.7863326 103.485669 86.5693348 103.837998 86.28 104.146 85.9906652 104.454002 85.6290022 104.698999 85.195 104.881 84.7609978 105.063001 84.2546696 105.154 83.676 105.154 83.2466645 105.154 82.8430019 105.091001 82.465 104.965 82.0869981 104.838999 81.7533348 104.657001 81.464 104.419 81.1746652 104.180999 80.9460008 103.884668 80.778 103.53 80.6099992 103.175332 80.5213334 102.774002 80.512 102.326L81.702 102.326C81.7206668 102.578001 81.7836661 102.813666 81.891 103.033 81.9983339 103.252334 82.1429991 103.443666 82.325 103.607 82.5070009 103.770334 82.7216654 103.896333 82.969 103.985 83.2163346 104.073667 83.4893318 104.118 83.788 104.118 84.0680014 104.118 84.336332 104.069 84.593 103.971 84.849668 103.873 85.0736657 103.726001 85.265 103.53 85.4563343 103.333999 85.6079994 103.089001 85.72 102.795 85.8320006 102.500999 85.888 102.158002 85.888 101.766 85.888 101.439332 85.8343339 101.138335 85.727 100.863 85.6196661 100.587665 85.468001 100.349668 85.272 100.149 85.075999 99.9483323 84.8403347 99.7920006 84.565 99.68 84.2896653 99.5679994 83.9840017 99.512 83.648 99.512 83.255998 99.512 82.9083349 99.5983325 82.605 99.771 82.3016652 99.9436675 82.0333345 100.169999 81.8 100.45L80.778 100.394 81.702 95.242 86.602 95.242 86.602 96.292zM88.926 95.004L90.746 95.004 93.896 103.404 97.06 95.004 98.88 95.004 98.88 105 97.62 105 97.62 96.684 97.592 96.684 94.47 105 93.336 105 90.214 96.684 90.186 96.684 90.186 105 88.926 105 88.926 95.004zM85.006 147L83.816 147 83.816 139.888 81.24 139.888 81.24 138.936C81.5760017 138.936 81.9026651 138.910334 82.22 138.859 82.5373349 138.807666 82.824332 138.712001 83.081 138.572 83.3376679 138.431999 83.5546658 138.240668 83.732 137.998 83.9093342 137.755332 84.0306663 137.447335 84.096 137.074L85.006 137.074 85.006 147zM88.926 137.004L90.746 137.004 93.896 145.404 97.06 137.004 98.88 137.004 98.88 147 97.62 147 97.62 138.684 97.592 138.684 94.47 147 93.336 147 90.214 138.684 90.186 138.684 90.186 147 88.926 147 88.926 137.004zM78.328 180.264C77.8239975 180.758669 77.3526689 181.346663 76.914 182.028 76.4753311 182.709337 76.0856684 183.437329 75.745 184.212 75.4043316 184.986671 75.1266677 185.784663 74.912 186.606 74.6973323 187.427337 74.5666669 188.225329 74.52 189L73.19 189C73.2460003 188.159996 73.3836656 187.341004 73.603 186.543 73.8223344 185.744996 74.1046649 184.97967 74.45 184.247 74.7953351 183.51433 75.1943311 182.821337 75.647 182.168 76.0996689 181.514663 76.5873307 180.912669 77.11 180.362L71.902 180.362 71.902 179.242 78.328 179.242 78.328 180.264zM80.148 187.446L81.702 187.446 81.702 189 80.148 189 80.148 187.446zM89.458 180.292L85.454 180.292 84.922 183.148 84.95 183.176C85.1646677 182.933332 85.4423316 182.753667 85.783 182.637 86.1236684 182.520333 86.4619983 182.462 86.798 182.462 87.2366689 182.462 87.651998 182.531999 88.044 182.672 88.436002 182.812001 88.7766652 183.024332 89.066 183.309 89.3553348 183.593668 89.5839992 183.948331 89.752 184.373 89.9200008 184.797669 90.004 185.294664 90.004 185.864 90.004 186.284002 89.9316674 186.692331 89.787 187.089 89.6423326 187.485669 89.4253348 187.837998 89.136 188.146 88.8466652 188.454002 88.4850022 188.698999 88.051 188.881 87.6169978 189.063001 87.1106696 189.154 86.532 189.154 86.1026645 189.154 85.6990019 189.091001 85.321 188.965 84.9429981 188.838999 84.6093348 188.657001 84.32 188.419 84.0306652 188.180999 83.8020008 187.884668 83.634 187.53 83.4659992 187.175332 83.3773334 186.774002 83.368 186.326L84.558 186.326C84.5766668 186.578001 84.6396661 186.813666 84.747 187.033 84.8543339 187.252334 84.9989991 187.443666 85.181 187.607 85.3630009 187.770334 85.5776654 187.896333 85.825 187.985 86.0723346 188.073667 86.3453318 188.118 86.644 188.118 86.9240014 188.118 87.192332 188.069 87.449 187.971 87.7056679 187.873 87.9296657 187.726001 88.121 187.53 88.3123343 187.333999 88.4639994 187.089001 88.576 186.795 88.6880006 186.500999 88.744 186.158002 88.744 185.766 88.744 185.439332 88.6903339 185.138335 88.583 184.863 88.4756661 184.587665 88.324001 184.349668 88.128 184.149 87.931999 183.948332 87.6963347 183.792001 87.421 183.68 87.1456653 183.567999 86.8400017 183.512 86.504 183.512 86.111998 183.512 85.7643348 183.598332 85.461 183.771 85.1576651 183.943668 84.8893345 184.169999 84.656 184.45L83.634 184.394 84.558 179.242 89.458 179.242 89.458 180.292zM91.754 179.004L93.084 179.004 93.084 183.848 98.152 179.004 99.874 179.004 95.114 183.456 100.042 189 98.362 189 94.106 184.268 93.084 185.22 93.084 189 91.754 189 91.754 179.004zM89.458 222.292L85.454 222.292 84.922 225.148 84.95 225.176C85.1646677 224.933332 85.4423316 224.753667 85.783 224.637 86.1236684 224.520333 86.4619983 224.462 86.798 224.462 87.2366689 224.462 87.651998 224.531999 88.044 224.672 88.436002 224.812001 88.7766652 225.024332 89.066 225.309 89.3553348 225.593668 89.5839992 225.948331 89.752 226.373 89.9200008 226.797669 90.004 227.294664 90.004 227.864 90.004 228.284002 89.9316674 228.692331 89.787 229.089 89.6423326 229.485669 89.4253348 229.837998 89.136 230.146 88.8466652 230.454002 88.4850022 230.698999 88.051 230.881 87.6169978 231.063001 87.1106696 231.154 86.532 231.154 86.1026645 231.154 85.6990019 231.091001 85.321 230.965 84.9429981 230.838999 84.6093348 230.657001 84.32 230.419 84.0306652 230.180999 83.8020008 229.884668 83.634 229.53 83.4659992 229.175332 83.3773334 228.774002 83.368 228.326L84.558 228.326C84.5766668 228.578001 84.6396661 228.813666 84.747 229.033 84.8543339 229.252334 84.9989991 229.443666 85.181 229.607 85.3630009 229.770334 85.5776654 229.896333 85.825 229.985 86.0723346 230.073667 86.3453318 230.118 86.644 230.118 86.9240014 230.118 87.192332 230.069 87.449 229.971 87.7056679 229.873 87.9296657 229.726001 88.121 229.53 88.3123343 229.333999 88.4639994 229.089001 88.576 228.795 88.6880006 228.500999 88.744 228.158002 88.744 227.766 88.744 227.439332 88.6903339 227.138335 88.583 226.863 88.4756661 226.587665 88.324001 226.349668 88.128 226.149 87.931999 225.948332 87.6963347 225.792001 87.421 225.68 87.1456653 225.567999 86.8400017 225.512 86.504 225.512 86.111998 225.512 85.7643348 225.598332 85.461 225.771 85.1576651 225.943668 84.8893345 226.169999 84.656 226.45L83.634 226.394 84.558 221.242 89.458 221.242 89.458 222.292zM91.754 221.004L93.084 221.004 93.084 225.848 98.152 221.004 99.874 221.004 95.114 225.456 100.042 231 98.362 231 94.106 226.268 93.084 227.22 93.084 231 91.754 231 91.754 221.004zM85.93 267.33C85.9766669 267.339333 86.0186665 267.344 86.056 267.344L86.448 267.344C86.7000013 267.344 86.9403322 267.309 87.169 267.239 87.3976678 267.169 87.5983325 267.066334 87.771 266.931 87.9436675 266.795666 88.0813328 266.625334 88.184 266.42 88.2866672 266.214666 88.338 265.981335 88.338 265.72 88.338 265.187997 88.1700017 264.789001 87.834 264.523 87.4979983 264.256999 87.0780025 264.124 86.574 264.124 86.2566651 264.124 85.9790012 264.182333 85.741 264.299 85.5029988 264.415667 85.3070008 264.571999 85.153 264.768 84.9989992 264.964001 84.884667 265.192665 84.81 265.454 84.735333 265.715335 84.698 265.990665 84.698 266.28L83.508 266.28C83.5266668 265.803998 83.603666 265.370002 83.739 264.978 83.874334 264.585998 84.0679987 264.250001 84.32 263.97 84.5720013 263.689999 84.8869981 263.470667 85.265 263.312 85.6430019 263.153333 86.0793309 263.074 86.574 263.074 87.0033355 263.074 87.4023315 263.127666 87.771 263.235 88.1396685 263.342334 88.459332 263.503332 88.73 263.718 89.000668 263.932668 89.2129992 264.207998 89.367 264.544 89.5210008 264.880002 89.598 265.276664 89.598 265.734 89.598 266.182002 89.4673346 266.578665 89.206 266.924 88.9446654 267.269335 88.618002 267.530666 88.226 267.708L88.226 267.736C88.8326697 267.866667 89.2829985 268.151331 89.577 268.59 89.8710015 269.028669 90.018 269.546664 90.018 270.144 90.018 270.638669 89.9270009 271.074998 89.745 271.453 89.5629991 271.831002 89.3180015 272.145999 89.01 272.398 88.7019985 272.650001 88.3403354 272.838999 87.925 272.965 87.5096646 273.091001 87.068669 273.154 86.602 273.154 86.0979975 273.154 85.6406687 273.084001 85.23 272.944 84.8193313 272.803999 84.4693348 272.596335 84.18 272.321 83.8906652 272.045665 83.6690008 271.707335 83.515 271.306 83.3609992 270.904665 83.2886666 270.447336 83.298 269.934L84.488 269.934C84.5066668 270.578003 84.6933316 271.102998 85.048 271.509 85.4026684 271.915002 85.9206633 272.118 86.602 272.118 86.8913348 272.118 87.1666654 272.073667 87.428 271.985 87.6893346 271.896333 87.917999 271.770334 88.114 271.607 88.310001 271.443666 88.4663328 271.243001 88.583 271.005 88.6996673 270.766999 88.758 270.498668 88.758 270.2 88.758 269.891998 88.7020006 269.619001 88.59 269.381 88.4779994 269.142999 88.3286676 268.942334 88.142 268.779 87.9553324 268.615666 87.7336679 268.494334 87.477 268.415 87.220332 268.335666 86.9426682 268.296 86.644 268.296 86.3919987 268.296 86.1540011 268.31 85.93 268.338L85.93 267.33zM91.754 263.004L93.084 263.004 93.084 267.848 98.152 263.004 99.874 263.004 95.114 267.456 100.042 273 98.362 273 94.106 268.268 93.084 269.22 93.084 273 91.754 273 91.754 263.004z"/>
      </g>
      <path fill="#222" d="M131.052 324.33C131.098667 324.339333 131.140666 324.344 131.178 324.344 131.224667 324.344 131.271333 324.344 131.318 324.344L131.57 324.344C131.822001 324.344 132.062332 324.309 132.291 324.239 132.519668 324.169 132.720332 324.066334 132.893 323.931 133.065668 323.795666 133.203333 323.625334 133.306 323.42 133.408667 323.214666 133.46 322.981335 133.46 322.72 133.46 322.187997 133.292002 321.789001 132.956 321.523 132.619998 321.256999 132.200003 321.124 131.696 321.124 131.378665 321.124 131.101001 321.182333 130.863 321.299 130.624999 321.415667 130.429001 321.571999 130.275 321.768 130.120999 321.964001 130.006667 322.192665 129.932 322.454 129.857333 322.715335 129.82 322.990665 129.82 323.28L128.63 323.28C128.648667 322.803998 128.725666 322.370002 128.861 321.978 128.996334 321.585998 129.189999 321.250001 129.442 320.97 129.694001 320.689999 130.008998 320.470667 130.387 320.312 130.765002 320.153333 131.201331 320.074 131.696 320.074 132.125335 320.074 132.524331 320.127666 132.893 320.235 133.261669 320.342334 133.581332 320.503332 133.852 320.718 134.122668 320.932668 134.334999 321.207998 134.489 321.544 134.643001 321.880002 134.72 322.276664 134.72 322.734 134.72 323.182002 134.589335 323.578665 134.328 323.924 134.066665 324.269335 133.740002 324.530666 133.348 324.708L133.348 324.736C133.95467 324.866667 134.404999 325.151331 134.699 325.59 134.993001 326.028669 135.14 326.546664 135.14 327.144 135.14 327.638669 135.049001 328.074998 134.867 328.453 134.684999 328.831002 134.440002 329.145999 134.132 329.398 133.823998 329.650001 133.462335 329.838999 133.047 329.965 132.631665 330.091001 132.190669 330.154 131.724 330.154 131.219997 330.154 130.762669 330.084001 130.352 329.944 129.941331 329.803999 129.591335 329.596335 129.302 329.321 129.012665 329.045665 128.791001 328.707335 128.637 328.306 128.482999 327.904665 128.410667 327.447336 128.42 326.934L129.61 326.934C129.628667 327.578003 129.815332 328.102998 130.17 328.509 130.524668 328.915002 131.042663 329.118 131.724 329.118 132.013335 329.118 132.288665 329.073667 132.55 328.985 132.811335 328.896333 133.039999 328.770334 133.236 328.607 133.432001 328.443666 133.588333 328.243001 133.705 328.005 133.821667 327.766999 133.88 327.498668 133.88 327.2 133.88 326.891998 133.824001 326.619001 133.712 326.381 133.599999 326.142999 133.450668 325.942334 133.264 325.779 133.077332 325.615666 132.855668 325.494334 132.599 325.415 132.342332 325.335666 132.064668 325.296 131.766 325.296 131.513999 325.296 131.276001 325.31 131.052 325.338L131.052 324.33zM210.662667 322.608C210.606666 322.159998 210.434001 321.800668 210.144667 321.53 209.855332 321.259332 209.472669 321.124 208.996667 321.124 208.492664 321.124 208.086668 321.247665 207.778667 321.495 207.470665 321.742335 207.230334 322.054998 207.057667 322.433 206.884999 322.811002 206.766 323.219331 206.700667 323.658 206.635333 324.096669 206.598 324.507331 206.588667 324.89L206.616667 324.918C206.896668 324.460664 207.244331 324.129334 207.659667 323.924 208.075002 323.718666 208.553331 323.616 209.094667 323.616 209.570669 323.616 209.997665 323.697666 210.375667 323.861 210.753669 324.024334 211.070999 324.250665 211.327667 324.54 211.584335 324.829335 211.782666 325.169998 211.922667 325.562 212.062667 325.954002 212.132667 326.378664 212.132667 326.836 212.132667 327.200002 212.076667 327.577998 211.964667 327.97 211.852666 328.362002 211.668335 328.718998 211.411667 329.041 211.154999 329.363002 210.814335 329.628999 210.389667 329.839 209.964998 330.049001 209.440003 330.154 208.814667 330.154 208.07733 330.154 207.484669 330.004668 207.036667 329.706 206.588664 329.407332 206.243335 329.024669 206.000667 328.558 205.757999 328.091331 205.597 327.578003 205.517667 327.018 205.438333 326.457997 205.398667 325.916669 205.398667 325.394 205.398667 324.712663 205.456999 324.052337 205.573667 323.413 205.690334 322.773663 205.888665 322.206669 206.168667 321.712 206.448668 321.217331 206.821998 320.820668 207.288667 320.522 207.755336 320.223332 208.34333 320.074 209.052667 320.074 209.874004 320.074 210.527331 320.290998 211.012667 320.725 211.498002 321.159002 211.778 321.786663 211.852667 322.608L210.662667 322.608zM208.870667 324.666C208.534665 324.666 208.240668 324.724333 207.988667 324.841 207.736665 324.957667 207.522001 325.116332 207.344667 325.317 207.167332 325.517668 207.034334 325.755665 206.945667 326.031 206.857 326.306335 206.812667 326.597998 206.812667 326.906 206.812667 327.214002 206.859333 327.503332 206.952667 327.774 207.046 328.044668 207.178999 328.277999 207.351667 328.474 207.524334 328.670001 207.738999 328.826333 207.995667 328.943 208.252335 329.059667 208.543998 329.118 208.870667 329.118 209.197335 329.118 209.484332 329.059667 209.731667 328.943 209.979001 328.826333 210.186666 328.665334 210.354667 328.46 210.522668 328.254666 210.651 328.019001 210.739667 327.753 210.828334 327.486999 210.872667 327.209335 210.872667 326.92 210.872667 326.611998 210.833 326.320335 210.753667 326.045 210.674333 325.769665 210.550668 325.531668 210.382667 325.331 210.214666 325.130332 210.004668 324.969334 209.752667 324.848 209.500665 324.726666 209.206668 324.666 208.870667 324.666zM283.609333 327.606C283.656 328.091336 283.851998 328.464665 284.197333 328.726 284.542668 328.987335 284.953331 329.118 285.429333 329.118 286.157337 329.118 286.703332 328.803003 287.067333 328.173 287.431335 327.542997 287.632 326.57934 287.669333 325.282L287.641333 325.254C287.417332 325.674002 287.100002 326.007665 286.689333 326.255 286.278665 326.502335 285.830669 326.626 285.345333 326.626 284.841331 326.626 284.393335 326.544334 284.001333 326.381 283.609331 326.217666 283.280335 325.991335 283.014333 325.702 282.748332 325.412665 282.547667 325.062669 282.412333 324.652 282.276999 324.241331 282.209333 323.793336 282.209333 323.308 282.209333 322.831998 282.288666 322.395669 282.447333 321.999 282.606001 321.602331 282.829999 321.261668 283.119333 320.977 283.408668 320.692332 283.753998 320.470667 284.155333 320.312 284.556669 320.153333 284.995331 320.074 285.471333 320.074 285.938002 320.074 286.376665 320.146333 286.787333 320.291 287.198002 320.435667 287.557332 320.685332 287.865333 321.04 288.173335 321.394668 288.418332 321.877664 288.600333 322.489 288.782334 323.100336 288.873333 323.877329 288.873333 324.82 288.873333 326.537342 288.600336 327.855662 288.054333 328.775 287.508331 329.694338 286.633339 330.154 285.429333 330.154 284.598663 330.154 283.908003 329.944002 283.357333 329.524 282.806664 329.103998 282.494 328.464671 282.419333 327.606L283.609333 327.606zM287.459333 323.392C287.459333 323.083998 287.415 322.794668 287.326333 322.524 287.237666 322.253332 287.107001 322.013001 286.934333 321.803 286.761666 321.592999 286.549335 321.427334 286.297333 321.306 286.045332 321.184666 285.751335 321.124 285.415333 321.124 285.060665 321.124 284.759668 321.189333 284.512333 321.32 284.264999 321.450667 284.064334 321.625666 283.910333 321.845 283.756333 322.064334 283.644334 322.313999 283.574333 322.594 283.504333 322.874001 283.469333 323.167998 283.469333 323.476 283.469333 323.746668 283.518333 324.007999 283.616333 324.26 283.714334 324.512001 283.849666 324.735999 284.022333 324.932 284.195001 325.128001 284.400332 325.284333 284.638333 325.401 284.876335 325.517667 285.139999 325.576 285.429333 325.576 285.737335 325.576 286.017332 325.517667 286.269333 325.401 286.521335 325.284333 286.735999 325.125668 286.913333 324.925 287.090668 324.724332 287.226 324.491001 287.319333 324.225 287.412667 323.958999 287.459333 323.681335 287.459333 323.392zM363.584 330L362.394 330 362.394 322.888 359.818 322.888 359.818 321.936C360.154002 321.936 360.480665 321.910334 360.798 321.859 361.115335 321.807666 361.402332 321.712001 361.659 321.572 361.915668 321.431999 362.132666 321.240668 362.31 320.998 362.487334 320.755332 362.608666 320.447335 362.674 320.074L363.584 320.074 363.584 330zM367 323.588C366.972 323.083997 367.023333 322.617335 367.154 322.188 367.284667 321.758665 367.487665 321.387668 367.763 321.075 368.038335 320.762332 368.381331 320.517334 368.792 320.34 369.202669 320.162666 369.669331 320.074 370.192 320.074 370.621335 320.074 371.024998 320.136999 371.403 320.263 371.781002 320.389001 372.109999 320.570999 372.39 320.809 372.670001 321.047001 372.891666 321.343332 373.055 321.698 373.218334 322.052668 373.3 322.463331 373.3 322.93 373.3 323.368669 373.232334 323.755998 373.097 324.092 372.961666 324.428002 372.782001 324.728999 372.558 324.995 372.333999 325.261001 372.077335 325.501332 371.788 325.716 371.498665 325.930668 371.200002 326.135999 370.892 326.332 370.583998 326.518668 370.276002 326.702999 369.968 326.885 369.659998 327.067001 369.377668 327.260666 369.121 327.466 368.864332 327.671334 368.645001 327.892999 368.463 328.131 368.280999 328.369001 368.162 328.641998 368.106 328.95L373.202 328.95 373.202 330 366.72 330C366.766667 329.411997 366.871666 328.910335 367.035 328.495 367.198334 328.079665 367.405999 327.718002 367.658 327.41 367.910001 327.101998 368.194665 326.831335 368.512 326.598 368.829335 326.364666 369.160665 326.145334 369.506 325.94 369.926002 325.678665 370.294665 325.438334 370.612 325.219 370.929335 324.999666 371.192999 324.778001 371.403 324.554 371.613001 324.329999 371.771666 324.087335 371.879 323.826 371.986334 323.564665 372.04 323.261335 372.04 322.916 372.04 322.645332 371.988667 322.400334 371.886 322.181 371.783333 321.961666 371.645668 321.772667 371.473 321.614 371.300332 321.455333 371.097335 321.334 370.864 321.25 370.630666 321.166 370.383335 321.124 370.122 321.124 369.776665 321.124 369.480335 321.196333 369.233 321.341 368.985665 321.485667 368.782667 321.674666 368.624 321.908 368.465333 322.141334 368.351 322.404999 368.281 322.699 368.211 322.993001 368.180667 323.289332 368.19 323.588L367 323.588zM444.082667 323.588C444.054667 323.083997 444.105999 322.617335 444.236667 322.188 444.367334 321.758665 444.570332 321.387668 444.845667 321.075 445.121001 320.762332 445.463998 320.517334 445.874667 320.34 446.285335 320.162666 446.751997 320.074 447.274667 320.074 447.704002 320.074 448.107665 320.136999 448.485667 320.263 448.863669 320.389001 449.192665 320.570999 449.472667 320.809 449.752668 321.047001 449.974333 321.343332 450.137667 321.698 450.301001 322.052668 450.382667 322.463331 450.382667 322.93 450.382667 323.368669 450.315001 323.755998 450.179667 324.092 450.044333 324.428002 449.864668 324.728999 449.640667 324.995 449.416666 325.261001 449.160001 325.501332 448.870667 325.716 448.581332 325.930668 448.282668 326.135999 447.974667 326.332 447.666665 326.518668 447.358668 326.702999 447.050667 326.885 446.742665 327.067001 446.460335 327.260666 446.203667 327.466 445.946999 327.671334 445.727668 327.892999 445.545667 328.131 445.363666 328.369001 445.244667 328.641998 445.188667 328.95L450.284667 328.95 450.284667 330 443.802667 330C443.849334 329.411997 443.954333 328.910335 444.117667 328.495 444.281001 328.079665 444.488665 327.718002 444.740667 327.41 444.992668 327.101998 445.277332 326.831335 445.594667 326.598 445.912002 326.364666 446.243332 326.145334 446.588667 325.94 447.008669 325.678665 447.377332 325.438334 447.694667 325.219 448.012002 324.999666 448.275666 324.778001 448.485667 324.554 448.695668 324.329999 448.854333 324.087335 448.961667 323.826 449.069001 323.564665 449.122667 323.261335 449.122667 322.916 449.122667 322.645332 449.071334 322.400334 448.968667 322.181 448.865999 321.961666 448.728334 321.772667 448.555667 321.614 448.382999 321.455333 448.180001 321.334 447.946667 321.25 447.713332 321.166 447.466001 321.124 447.204667 321.124 446.859332 321.124 446.563001 321.196333 446.315667 321.341 446.068332 321.485667 445.865334 321.674666 445.706667 321.908 445.547999 322.141334 445.433667 322.404999 445.363667 322.699 445.293666 322.993001 445.263333 323.289332 445.272667 323.588L444.082667 323.588zM455.996667 326.626L455.996667 321.768 455.968667 321.768 452.664667 326.626 455.996667 326.626zM457.116667 326.626L458.460667 326.626 458.460667 327.676 457.116667 327.676 457.116667 330 455.996667 330 455.996667 327.676 451.642667 327.676 451.642667 326.528 456.164667 320.074 457.116667 320.074 457.116667 326.626zM531.385333 324.33C531.432 324.339333 531.474 324.344 531.511333 324.344L531.903333 324.344C532.155335 324.344 532.395666 324.309 532.624333 324.239 532.853001 324.169 533.053666 324.066334 533.226333 323.931 533.399001 323.795666 533.536666 323.625334 533.639333 323.42 533.742001 323.214666 533.793333 322.981335 533.793333 322.72 533.793333 322.187997 533.625335 321.789001 533.289333 321.523 532.953332 321.256999 532.533336 321.124 532.029333 321.124 531.711998 321.124 531.434335 321.182333 531.196333 321.299 530.958332 321.415667 530.762334 321.571999 530.608333 321.768 530.454333 321.964001 530.34 322.192665 530.265333 322.454 530.190666 322.715335 530.153333 322.990665 530.153333 323.28L528.963333 323.28C528.982 322.803998 529.058999 322.370002 529.194333 321.978 529.329667 321.585998 529.523332 321.250001 529.775333 320.97 530.027335 320.689999 530.342331 320.470667 530.720333 320.312 531.098335 320.153333 531.534664 320.074 532.029333 320.074 532.458669 320.074 532.857665 320.127666 533.226333 320.235 533.595002 320.342334 533.914665 320.503332 534.185333 320.718 534.456001 320.932668 534.668333 321.207998 534.822333 321.544 534.976334 321.880002 535.053333 322.276664 535.053333 322.734 535.053333 323.182002 534.922668 323.578665 534.661333 323.924 534.399999 324.269335 534.073335 324.530666 533.681333 324.708L533.681333 324.736C534.288003 324.866667 534.738332 325.151331 535.032333 325.59 535.326335 326.028669 535.473333 326.546664 535.473333 327.144 535.473333 327.638669 535.382334 328.074998 535.200333 328.453 535.018332 328.831002 534.773335 329.145999 534.465333 329.398 534.157332 329.650001 533.795669 329.838999 533.380333 329.965 532.964998 330.091001 532.524002 330.154 532.057333 330.154 531.553331 330.154 531.096002 330.084001 530.685333 329.944 530.274665 329.803999 529.924668 329.596335 529.635333 329.321 529.345999 329.045665 529.124334 328.707335 528.970333 328.306 528.816333 327.904665 528.744 327.447336 528.753333 326.934L529.943333 326.934C529.962 327.578003 530.148665 328.102998 530.503333 328.509 530.858002 328.915002 531.375997 329.118 532.057333 329.118 532.346668 329.118 532.621999 329.073667 532.883333 328.985 533.144668 328.896333 533.373332 328.770334 533.569333 328.607 533.765334 328.443666 533.921666 328.243001 534.038333 328.005 534.155001 327.766999 534.213333 327.498668 534.213333 327.2 534.213333 326.891998 534.157334 326.619001 534.045333 326.381 533.933333 326.142999 533.784001 325.942334 533.597333 325.779 533.410666 325.615666 533.189001 325.494334 532.932333 325.415 532.675665 325.335666 532.398001 325.296 532.099333 325.296 531.847332 325.296 531.609334 325.31 531.385333 325.338L531.385333 324.33zM541.913333 322.608C541.857333 322.159998 541.684668 321.800668 541.395333 321.53 541.105999 321.259332 540.723336 321.124 540.247333 321.124 539.743331 321.124 539.337335 321.247665 539.029333 321.495 538.721332 321.742335 538.481001 322.054998 538.308333 322.433 538.135666 322.811002 538.016667 323.219331 537.951333 323.658 537.886 324.096669 537.848667 324.507331 537.839333 324.89L537.867333 324.918C538.147335 324.460664 538.494998 324.129334 538.910333 323.924 539.325669 323.718666 539.803997 323.616 540.345333 323.616 540.821336 323.616 541.248331 323.697666 541.626333 323.861 542.004335 324.024334 542.321665 324.250665 542.578333 324.54 542.835001 324.829335 543.033333 325.169998 543.173333 325.562 543.313334 325.954002 543.383333 326.378664 543.383333 326.836 543.383333 327.200002 543.327334 327.577998 543.215333 327.97 543.103333 328.362002 542.919001 328.718998 542.662333 329.041 542.405665 329.363002 542.065002 329.628999 541.640333 329.839 541.215665 330.049001 540.69067 330.154 540.065333 330.154 539.327996 330.154 538.735336 330.004668 538.287333 329.706 537.839331 329.407332 537.494001 329.024669 537.251333 328.558 537.008665 328.091331 536.847667 327.578003 536.768333 327.018 536.689 326.457997 536.649333 325.916669 536.649333 325.394 536.649333 324.712663 536.707666 324.052337 536.824333 323.413 536.941001 322.773663 537.139332 322.206669 537.419333 321.712 537.699335 321.217331 538.072664 320.820668 538.539333 320.522 539.006002 320.223332 539.593996 320.074 540.303333 320.074 541.124671 320.074 541.777998 320.290998 542.263333 320.725 542.748669 321.159002 543.028666 321.786663 543.103333 322.608L541.913333 322.608zM540.121333 324.666C539.785332 324.666 539.491335 324.724333 539.239333 324.841 538.987332 324.957667 538.772668 325.116332 538.595333 325.317 538.417999 325.517668 538.285 325.755665 538.196333 326.031 538.107666 326.306335 538.063333 326.597998 538.063333 326.906 538.063333 327.214002 538.11 327.503332 538.203333 327.774 538.296667 328.044668 538.429666 328.277999 538.602333 328.474 538.775001 328.670001 538.989665 328.826333 539.246333 328.943 539.503001 329.059667 539.794665 329.118 540.121333 329.118 540.448002 329.118 540.734999 329.059667 540.982333 328.943 541.229668 328.826333 541.437332 328.665334 541.605333 328.46 541.773334 328.254666 541.901666 328.019001 541.990333 327.753 542.079 327.486999 542.123333 327.209335 542.123333 326.92 542.123333 326.611998 542.083667 326.320335 542.004333 326.045 541.925 325.769665 541.801334 325.531668 541.633333 325.331 541.465332 325.130332 541.255335 324.969334 541.003333 324.848 540.751332 324.726666 540.457335 324.666 540.121333 324.666z"/>
      <path fill="#7D7D7D" d="M561.12 320.004L562.94 320.004 566.09 328.404 569.254 320.004 571.074 320.004 571.074 330 569.814 330 569.814 321.684 569.786 321.684 566.664 330 565.53 330 562.408 321.684 562.38 321.684 562.38 330 561.12 330 561.12 320.004zM576.17 330.154C575.59133 330.154 575.085002 330.060668 574.651 329.874 574.216998 329.687332 573.855335 329.426002 573.566 329.09 573.276665 328.753998 573.059667 328.352669 572.915 327.886 572.770333 327.419331 572.698 326.910669 572.698 326.36 572.698 325.818664 572.781999 325.317002 572.95 324.855 573.118001 324.392998 573.353665 323.994002 573.657 323.658 573.960335 323.321998 574.319665 323.060668 574.735 322.874 575.150335 322.687332 575.605331 322.594 576.1 322.594 576.744003 322.594 577.278331 322.726999 577.703 322.993 578.127669 323.259001 578.468332 323.597331 578.725 324.008 578.981668 324.418669 579.159 324.866664 579.257 325.352 579.355 325.837336 579.394667 326.299331 579.376 326.738L573.958 326.738C573.948667 327.055335 573.986 327.356332 574.07 327.641 574.154 327.925668 574.289332 328.177666 574.476 328.397 574.662668 328.616334 574.900665 328.791333 575.19 328.922 575.479335 329.052667 575.819998 329.118 576.212 329.118 576.716003 329.118 577.128998 329.001334 577.451 328.768 577.773002 328.534666 577.985333 328.180002 578.088 327.704L579.264 327.704C579.105333 328.525337 578.755336 329.138998 578.214 329.545 577.672664 329.951002 576.991337 330.154 576.17 330.154zM578.116 325.688C578.097333 325.407999 578.034334 325.142001 577.927 324.89 577.819666 324.637999 577.675001 324.421001 577.493 324.239 577.310999 324.056999 577.096335 323.912334 576.849 323.805 576.601665 323.697666 576.328668 323.644 576.03 323.644 575.721998 323.644 575.444335 323.697666 575.197 323.805 574.949665 323.912334 574.737334 324.059332 574.56 324.246 574.382666 324.432668 574.242667 324.649665 574.14 324.897 574.037333 325.144335 573.976667 325.407999 573.958 325.688L578.116 325.688zM583.604 330.154C583.053331 330.154 582.565669 330.065334 582.141 329.888 581.716331 329.710666 581.361668 329.458668 581.077 329.132 580.792332 328.805332 580.577667 328.418002 580.433 327.97 580.288333 327.521998 580.216 327.022669 580.216 326.472 580.216 325.930664 580.285999 325.424336 580.426 324.953 580.566001 324.481664 580.778332 324.071002 581.063 323.721 581.347668 323.370998 581.702331 323.095668 582.127 322.895 582.551669 322.694332 583.05333 322.594 583.632 322.594 584.042669 322.594 584.427665 322.643 584.787 322.741 585.146335 322.839 585.463665 322.990666 585.739 323.196 586.014335 323.401334 586.240666 323.660332 586.418 323.973 586.595334 324.285668 586.707333 324.656665 586.754 325.086L585.522 325.086C585.428666 324.628664 585.232668 324.274001 584.934 324.022 584.635332 323.769999 584.234003 323.644 583.73 323.644 583.300665 323.644 582.941335 323.723333 582.652 323.882 582.362665 324.040667 582.131668 324.250665 581.959 324.512 581.786332 324.773335 581.662667 325.074332 581.588 325.415 581.513333 325.755668 581.476 326.107998 581.476 326.472 581.476 326.808002 581.515666 327.134665 581.595 327.452 581.674334 327.769335 581.797999 328.051665 581.966 328.299 582.134001 328.546335 582.350999 328.744666 582.617 328.894 582.883001 329.043334 583.207331 329.118 583.59 329.118 584.178003 329.118 584.637665 328.964002 584.969 328.656 585.300335 328.347998 585.503333 327.914003 585.578 327.354L586.796 327.354C586.665333 328.259338 586.334003 328.952331 585.802 329.433 585.269997 329.913669 584.537338 330.154 583.604 330.154zM589.652 327.172C589.138664 327.097333 588.718668 326.864002 588.392 326.472 588.065332 326.079998 587.902 325.585336 587.902 324.988 587.902 324.306663 588.104998 323.765335 588.511 323.364 588.917002 322.962665 589.469996 322.762 590.17 322.762L593.838 322.762 593.838 330 592.648 330 592.648 327.214 591.066 327.214 588.854 330 587.272 330 589.652 327.172zM592.648 326.192L592.648 323.812 590.548 323.812C590.043997 323.812 589.680001 323.919332 589.456 324.134 589.231999 324.348668 589.12 324.637998 589.12 325.002 589.12 325.375335 589.231999 325.666999 589.456 325.877 589.680001 326.087001 590.043997 326.192 590.548 326.192L592.648 326.192zM601.272 330L595.63 330 595.63 322.762 596.82 322.762 596.82 328.95 600.236 328.95 600.236 322.762 601.426 322.762 601.426 328.95 602.406 328.95 602.406 332.198 601.272 332.198 601.272 330zM603.526 322.762L604.716 322.762 604.716 325.534 606.956 325.534C607.665337 325.534 608.234665 325.727665 608.664 326.115 609.093335 326.502335 609.308 327.045997 609.308 327.746 609.308 328.427337 609.102669 328.973331 608.692 329.384 608.281331 329.794669 607.721337 330 607.012 330L603.526 330 603.526 322.762zM606.578 328.95C607.576672 328.95 608.076 328.548671 608.076 327.746 608.076 326.952663 607.576672 326.556 606.578 326.556L604.716 326.556 604.716 328.95 606.578 328.95zM610.456 322.762L611.646 322.762 611.646 330 610.456 330 610.456 322.762zM58.35 19.88L59.33 19.88C59.5166676 19.5439983 59.6893325 19.1240025 59.848 18.62 60.0066675 18.1159975 60.1443328 17.563003 60.261 16.961 60.3776673 16.358997 60.4686663 15.71967 60.534 15.043 60.5993337 14.3663299 60.632 13.6826701 60.632 12.992L60.632 11.004 67.072 11.004 67.072 19.88 68.178 19.88 68.178 23.478 66.904 23.478 66.904 21 59.624 21 59.624 23.478 58.35 23.478 58.35 19.88zM65.742 19.88L65.742 12.124 61.92 12.124 61.92 13.566C61.92 14.1820031 61.889667 14.8003302 61.829 15.421 61.768333 16.0416698 61.6843339 16.6296639 61.577 17.185 61.4696661 17.7403361 61.348334 18.251331 61.213 18.718 61.077666 19.184669 60.9353341 19.5719985 60.786 19.88L65.742 19.88zM72.448 21.154C71.8693304 21.154 71.3630022 21.0583343 70.929 20.867 70.4949978 20.6756657 70.1286682 20.4096684 69.83 20.069 69.5313318 19.7283316 69.3073341 19.3293356 69.158 18.872 69.0086659 18.4146644 68.934 17.9200027 68.934 17.388 68.934 16.8559973 69.0086659 16.3590023 69.158 15.897 69.3073341 15.4349977 69.5313318 15.0336684 69.83 14.693 70.1286682 14.3523316 70.4949978 14.084001 70.929 13.888 71.3630022 13.691999 71.8693304 13.594 72.448 13.594 73.0173362 13.594 73.5213311 13.691999 73.96 13.888 74.3986689 14.084001 74.7673318 14.3523316 75.066 14.693 75.3646682 15.0336684 75.5886659 15.4349977 75.738 15.897 75.8873341 16.3590023 75.962 16.8559973 75.962 17.388 75.962 17.9200027 75.8873341 18.4146644 75.738 18.872 75.5886659 19.3293356 75.3646682 19.7283316 75.066 20.069 74.7673318 20.4096684 74.3986689 20.6756657 73.96 20.867 73.5213311 21.0583343 73.0173362 21.154 72.448 21.154zM72.448 20.118C72.7560015 20.118 73.0476653 20.0573339 73.323 19.936 73.5983347 19.8146661 73.8386656 19.6396678 74.044 19.411 74.2493344 19.1823322 74.4103327 18.8976684 74.527 18.557 74.6436672 18.2163316 74.702 17.8266689 74.702 17.388 74.702 16.9493311 74.6436672 16.5596684 74.527 16.219 74.4103327 15.8783316 74.2493344 15.5913345 74.044 15.358 73.8386656 15.1246655 73.5983347 14.9473339 73.323 14.826 73.0476653 14.7046661 72.7560015 14.644 72.448 14.644 72.1399985 14.644 71.8483347 14.7046661 71.573 14.826 71.2976653 14.9473339 71.0573344 15.1246655 70.852 15.358 70.6466656 15.5913345 70.4856672 15.8783316 70.369 16.219 70.2523327 16.5596684 70.194 16.9493311 70.194 17.388 70.194 17.8266689 70.2523327 18.2163316 70.369 18.557 70.4856672 18.8976684 70.6466656 19.1823322 70.852 19.411 71.0573344 19.6396678 71.2976653 19.8146661 71.573 19.936 71.8483347 20.0573339 72.1399985 20.118 72.448 20.118zM79.308 17.192L76.788 13.762 78.314 13.762 80.05 16.296 81.856 13.762 83.284 13.762 80.792 17.094 83.592 21 82.066 21 80.05 18.004 78.034 21 76.592 21 79.308 17.192zM87.736 21.154C87.1573304 21.154 86.6510022 21.0583343 86.217 20.867 85.7829978 20.6756657 85.4166682 20.4096684 85.118 20.069 84.8193318 19.7283316 84.5953341 19.3293356 84.446 18.872 84.2966659 18.4146644 84.222 17.9200027 84.222 17.388 84.222 16.8559973 84.2966659 16.3590023 84.446 15.897 84.5953341 15.4349977 84.8193318 15.0336684 85.118 14.693 85.4166682 14.3523316 85.7829978 14.084001 86.217 13.888 86.6510022 13.691999 87.1573304 13.594 87.736 13.594 88.3053362 13.594 88.8093311 13.691999 89.248 13.888 89.6866689 14.084001 90.0553318 14.3523316 90.354 14.693 90.6526682 15.0336684 90.8766659 15.4349977 91.026 15.897 91.1753341 16.3590023 91.25 16.8559973 91.25 17.388 91.25 17.9200027 91.1753341 18.4146644 91.026 18.872 90.8766659 19.3293356 90.6526682 19.7283316 90.354 20.069 90.0553318 20.4096684 89.6866689 20.6756657 89.248 20.867 88.8093311 21.0583343 88.3053362 21.154 87.736 21.154zM87.736 20.118C88.0440015 20.118 88.3356653 20.0573339 88.611 19.936 88.8863347 19.8146661 89.1266656 19.6396678 89.332 19.411 89.5373344 19.1823322 89.6983327 18.8976684 89.815 18.557 89.9316672 18.2163316 89.99 17.8266689 89.99 17.388 89.99 16.9493311 89.9316672 16.5596684 89.815 16.219 89.6983327 15.8783316 89.5373344 15.5913345 89.332 15.358 89.1266656 15.1246655 88.8863347 14.9473339 88.611 14.826 88.3356653 14.7046661 88.0440015 14.644 87.736 14.644 87.4279985 14.644 87.1363347 14.7046661 86.861 14.826 86.5856653 14.9473339 86.3453344 15.1246655 86.14 15.358 85.9346656 15.5913345 85.7736672 15.8783316 85.657 16.219 85.5403327 16.5596684 85.482 16.9493311 85.482 17.388 85.482 17.8266689 85.5403327 18.2163316 85.657 18.557 85.7736672 18.8976684 85.9346656 19.1823322 86.14 19.411 86.3453344 19.6396678 86.5856653 19.8146661 86.861 19.936 87.1363347 20.0573339 87.4279985 20.118 87.736 20.118zM91.796 19.95L92.65 19.95C92.7526672 19.753999 92.8576661 19.4856684 92.965 19.145 93.0723339 18.8043316 93.1703329 18.4263354 93.259 18.011 93.3476671 17.5956646 93.4199997 17.154669 93.476 16.688 93.5320003 16.221331 93.56 15.7640022 93.56 15.316L93.56 13.762 98.796 13.762 98.796 19.95 99.776 19.95 99.776 23.198 98.642 23.198 98.642 21 92.93 21 92.93 23.198 91.796 23.198 91.796 19.95zM97.606 19.95L97.606 14.812 94.722 14.812 94.722 15.428C94.722 15.8853356 94.6963336 16.3403311 94.645 16.793 94.5936664 17.2456689 94.5260004 17.6726647 94.442 18.074 94.3579996 18.4753353 94.2670005 18.8393317 94.169 19.166 94.0709995 19.4926683 93.9753338 19.753999 93.882 19.95L97.606 19.95z"/>
    </g>
    <g transform="translate(148 63)">
      <g transform="translate(164)">
        <circle cx="3" cy="17" r="4" fill="#FFF" stroke="#1D1D1D" stroke-width="2"/>
        <path fill="#222" d="M17.092,11.004 L24.876,11.004 L24.876,21 L23.546,21 L23.546,12.124 L18.422,12.124 L18.422,21 L17.092,21 L17.092,11.004 Z M29.986,21.154 C29.4073304,21.154 28.9010022,21.0583343 28.467,20.867 C28.0329978,20.6756657 27.6666682,20.4096684 27.368,20.069 C27.0693318,19.7283316 26.8453341,19.3293356 26.696,18.872 C26.5466659,18.4146644 26.472,17.9200027 26.472,17.388 C26.472,16.8559973 26.5466659,16.3590023 26.696,15.897 C26.8453341,15.4349977 27.0693318,15.0336684 27.368,14.693 C27.6666682,14.3523316 28.0329978,14.084001 28.467,13.888 C28.9010022,13.691999 29.4073304,13.594 29.986,13.594 C30.5553362,13.594 31.0593311,13.691999 31.498,13.888 C31.9366689,14.084001 32.3053318,14.3523316 32.604,14.693 C32.9026682,15.0336684 33.1266659,15.4349977 33.276,15.897 C33.4253341,16.3590023 33.5,16.8559973 33.5,17.388 C33.5,17.9200027 33.4253341,18.4146644 33.276,18.872 C33.1266659,19.3293356 32.9026682,19.7283316 32.604,20.069 C32.3053318,20.4096684 31.9366689,20.6756657 31.498,20.867 C31.0593311,21.0583343 30.5553362,21.154 29.986,21.154 Z M29.986,20.118 C30.2940015,20.118 30.5856653,20.0573339 30.861,19.936 C31.1363347,19.8146661 31.3766656,19.6396678 31.582,19.411 C31.7873344,19.1823322 31.9483328,18.8976684 32.065,18.557 C32.1816673,18.2163316 32.24,17.8266689 32.24,17.388 C32.24,16.9493311 32.1816673,16.5596684 32.065,16.219 C31.9483328,15.8783316 31.7873344,15.5913345 31.582,15.358 C31.3766656,15.1246655 31.1363347,14.9473339 30.861,14.826 C30.5856653,14.7046661 30.2940015,14.644 29.986,14.644 C29.6779985,14.644 29.3863347,14.7046661 29.111,14.826 C28.8356653,14.9473339 28.5953344,15.1246655 28.39,15.358 C28.1846656,15.5913345 28.0236673,15.8783316 27.907,16.219 C27.7903327,16.5596684 27.732,16.9493311 27.732,17.388 C27.732,17.8266689 27.7903327,18.2163316 27.907,18.557 C28.0236673,18.8976684 28.1846656,19.1823322 28.39,19.411 C28.5953344,19.6396678 28.8356653,19.8146661 29.111,19.936 C29.3863347,20.0573339 29.6779985,20.118 29.986,20.118 Z M37.896,21.154 C37.3453306,21.154 36.8576688,21.0653342 36.433,20.888 C36.0083312,20.7106658 35.6536681,20.4586683 35.369,20.132 C35.0843319,19.8053317 34.8696674,19.4180022 34.725,18.97 C34.5803326,18.5219978 34.508,18.0226694 34.508,17.472 C34.508,16.930664 34.5779993,16.4243357 34.718,15.953 C34.8580007,15.4816643 35.0703319,15.0710018 35.355,14.721 C35.6396681,14.3709982 35.9943312,14.0956677 36.419,13.895 C36.8436688,13.6943323 37.3453304,13.594 37.924,13.594 C38.3346687,13.594 38.7196649,13.6429995 39.079,13.741 C39.4383351,13.8390005 39.7556653,13.9906656 40.031,14.196 C40.3063347,14.4013344 40.5326658,14.6603318 40.71,14.973 C40.8873342,15.2856682 40.9993331,15.6566645 41.046,16.086 L39.814,16.086 C39.7206662,15.6286644 39.5246682,15.2740013 39.226,15.022 C38.9273318,14.7699987 38.5260025,14.644 38.022,14.644 C37.5926645,14.644 37.2333348,14.7233325 36.944,14.882 C36.6546652,15.0406675 36.4236675,15.2506654 36.251,15.512 C36.0783325,15.7733346 35.954667,16.0743316 35.88,16.415 C35.805333,16.7556684 35.768,17.1079982 35.768,17.472 C35.768,17.8080017 35.8076663,18.1346651 35.887,18.452 C35.9663337,18.7693349 36.0899992,19.0516654 36.258,19.299 C36.4260008,19.5463346 36.6429987,19.7446659 36.909,19.894 C37.1750013,20.0433341 37.4993314,20.118 37.882,20.118 C38.4700029,20.118 38.929665,19.9640015 39.261,19.656 C39.592335,19.3479985 39.795333,18.9140028 39.87,18.354 L41.088,18.354 C40.9573327,19.2593379 40.6260027,19.9523309 40.094,20.433 C39.5619973,20.9136691 38.829338,21.154 37.896,21.154 Z M42.362,21.084 C42.2406661,21.084 42.1146673,21.0723334 41.984,21.049 C41.8533327,21.0256665 41.7460004,21.0046668 41.662,20.986 L41.662,19.936 C41.7553338,19.9640001 41.8416663,19.9826666 41.921,19.992 C42.0003337,20.0013334 42.077333,20.006 42.152,20.006 C42.4600015,20.006 42.6956658,19.8846679 42.859,19.642 C43.0223341,19.3993321 43.1436663,19.0260025 43.223,18.522 C43.3023337,18.0179975 43.3513332,17.3716706 43.37,16.583 C43.3886668,15.7943294 43.4073332,14.8540055 43.426,13.762 L48.508,13.762 L48.508,21 L47.318,21 L47.318,14.812 L44.574,14.812 C44.5459999,15.6613376 44.5156668,16.4663295 44.483,17.227 C44.4503332,17.9876705 44.3686673,18.6526638 44.238,19.222 C44.1073327,19.7913362 43.8973348,20.2439983 43.608,20.58 C43.3186652,20.9160017 42.903336,21.084 42.362,21.084 Z M53.38,21.154 C52.8013304,21.154 52.2950022,21.0606676 51.861,20.874 C51.4269978,20.6873324 51.0653348,20.4260017 50.776,20.09 C50.4866652,19.7539983 50.2696674,19.352669 50.125,18.886 C49.9803326,18.419331 49.908,17.9106694 49.908,17.36 C49.908,16.818664 49.9919992,16.3170023 50.16,15.855 C50.3280008,15.3929977 50.5636651,14.9940017 50.867,14.658 C51.1703348,14.3219983 51.5296646,14.0606676 51.945,13.874 C52.3603354,13.6873324 52.8153309,13.594 53.31,13.594 C53.9540032,13.594 54.4883312,13.7269987 54.913,13.993 C55.3376688,14.2590013 55.678332,14.5973313 55.935,15.008 C56.1916679,15.4186687 56.3689995,15.8666642 56.467,16.352 C56.5650005,16.8373358 56.6046668,17.2993311 56.586,17.738 L51.168,17.738 C51.1586666,18.0553349 51.1959996,18.3563319 51.28,18.641 C51.3640004,18.9256681 51.4993324,19.1776656 51.686,19.397 C51.8726676,19.6163344 52.1106652,19.7913327 52.4,19.922 C52.6893348,20.0526673 53.029998,20.118 53.422,20.118 C53.9260025,20.118 54.3389984,20.0013345 54.661,19.768 C54.9830016,19.5346655 55.1953328,19.1800024 55.298,18.704 L56.474,18.704 C56.3153325,19.5253374 55.965336,20.138998 55.424,20.545 C54.882664,20.951002 54.2013374,21.154 53.38,21.154 Z M55.326,16.688 C55.3073332,16.4079986 55.2443339,16.1420013 55.137,15.89 C55.0296661,15.6379987 54.8850009,15.4210009 54.703,15.239 C54.5209991,15.0569991 54.3063346,14.9123339 54.059,14.805 C53.8116654,14.6976661 53.5386682,14.644 53.24,14.644 C52.9319985,14.644 52.6543346,14.6976661 52.407,14.805 C52.1596654,14.9123339 51.9473342,15.0593324 51.77,15.246 C51.5926658,15.4326676 51.4526672,15.6496654 51.35,15.897 C51.2473328,16.1443346 51.1866668,16.4079986 51.168,16.688 L55.326,16.688 Z M61.71,13.762 L63.418,13.762 L65.616,19.628 L65.644,19.628 L67.842,13.762 L69.55,13.762 L69.55,21 L68.36,21 L68.36,15.26 L66.176,21 L65.084,21 L62.9,15.26 L62.9,21 L61.71,21 L61.71,13.762 Z M74.464,21.154 C73.8853304,21.154 73.3790022,21.0583343 72.945,20.867 C72.5109978,20.6756657 72.1446682,20.4096684 71.846,20.069 C71.5473318,19.7283316 71.3233341,19.3293356 71.174,18.872 C71.0246659,18.4146644 70.95,17.9200027 70.95,17.388 C70.95,16.8559973 71.0246659,16.3590023 71.174,15.897 C71.3233341,15.4349977 71.5473318,15.0336684 71.846,14.693 C72.1446682,14.3523316 72.5109978,14.084001 72.945,13.888 C73.3790022,13.691999 73.8853304,13.594 74.464,13.594 C75.0333362,13.594 75.5373311,13.691999 75.976,13.888 C76.4146689,14.084001 76.7833318,14.3523316 77.082,14.693 C77.3806682,15.0336684 77.6046659,15.4349977 77.754,15.897 C77.9033341,16.3590023 77.978,16.8559973 77.978,17.388 C77.978,17.9200027 77.9033341,18.4146644 77.754,18.872 C77.6046659,19.3293356 77.3806682,19.7283316 77.082,20.069 C76.7833318,20.4096684 76.4146689,20.6756657 75.976,20.867 C75.5373311,21.0583343 75.0333362,21.154 74.464,21.154 Z M74.464,20.118 C74.7720015,20.118 75.0636653,20.0573339 75.339,19.936 C75.6143347,19.8146661 75.8546656,19.6396678 76.06,19.411 C76.2653344,19.1823322 76.4263328,18.8976684 76.543,18.557 C76.6596672,18.2163316 76.718,17.8266689 76.718,17.388 C76.718,16.9493311 76.6596672,16.5596684 76.543,16.219 C76.4263328,15.8783316 76.2653344,15.5913345 76.06,15.358 C75.8546656,15.1246655 75.6143347,14.9473339 75.339,14.826 C75.0636653,14.7046661 74.7720015,14.644 74.464,14.644 C74.1559985,14.644 73.8643347,14.7046661 73.589,14.826 C73.3136653,14.9473339 73.0733344,15.1246655 72.868,15.358 C72.6626656,15.5913345 72.5016672,15.8783316 72.385,16.219 C72.2683327,16.5596684 72.21,16.9493311 72.21,17.388 C72.21,17.8266689 72.2683327,18.2163316 72.385,18.557 C72.5016672,18.8976684 72.6626656,19.1823322 72.868,19.411 C73.0733344,19.6396678 73.3136653,19.8146661 73.589,19.936 C73.8643347,20.0573339 74.1559985,20.118 74.464,20.118 Z M79.378,13.762 L80.568,13.762 L80.568,16.646 L84.236,16.646 L84.236,13.762 L85.426,13.762 L85.426,21 L84.236,21 L84.236,17.668 L80.568,17.668 L80.568,21 L79.378,21 L79.378,13.762 Z M90.298,21.154 C89.7193304,21.154 89.2130022,21.0606676 88.779,20.874 C88.3449978,20.6873324 87.9833348,20.4260017 87.694,20.09 C87.4046652,19.7539983 87.1876674,19.352669 87.043,18.886 C86.8983326,18.419331 86.826,17.9106694 86.826,17.36 C86.826,16.818664 86.9099992,16.3170023 87.078,15.855 C87.2460008,15.3929977 87.4816651,14.9940017 87.785,14.658 C88.0883348,14.3219983 88.4476646,14.0606676 88.863,13.874 C89.2783354,13.6873324 89.7333309,13.594 90.228,13.594 C90.8720032,13.594 91.4063312,13.7269987 91.831,13.993 C92.2556688,14.2590013 92.5963321,14.5973313 92.853,15.008 C93.109668,15.4186687 93.2869995,15.8666642 93.385,16.352 C93.4830005,16.8373358 93.5226668,17.2993311 93.504,17.738 L88.086,17.738 C88.0766666,18.0553349 88.1139996,18.3563319 88.198,18.641 C88.2820004,18.9256681 88.4173324,19.1776656 88.604,19.397 C88.7906676,19.6163344 89.0286652,19.7913327 89.318,19.922 C89.6073348,20.0526673 89.947998,20.118 90.34,20.118 C90.8440025,20.118 91.2569984,20.0013345 91.579,19.768 C91.9010016,19.5346655 92.1133328,19.1800024 92.216,18.704 L93.392,18.704 C93.2333325,19.5253374 92.883336,20.138998 92.342,20.545 C91.800664,20.951002 91.1193374,21.154 90.298,21.154 Z M92.244,16.688 C92.2253332,16.4079986 92.1623339,16.1420013 92.055,15.89 C91.9476661,15.6379987 91.8030009,15.4210009 91.621,15.239 C91.4389991,15.0569991 91.2243346,14.9123339 90.977,14.805 C90.7296654,14.6976661 90.4566682,14.644 90.158,14.644 C89.8499985,14.644 89.5723346,14.6976661 89.325,14.805 C89.0776654,14.9123339 88.8653342,15.0593324 88.688,15.246 C88.5106658,15.4326676 88.3706672,15.6496654 88.268,15.897 C88.1653328,16.1443346 88.1046668,16.4079986 88.086,16.688 L92.244,16.688 Z M96.486,14.812 L93.896,14.812 L93.896,13.762 L100.266,13.762 L100.266,14.812 L97.676,14.812 L97.676,21 L96.486,21 L96.486,14.812 Z M101.218,13.762 L102.408,13.762 L102.408,19.67 L105.824,13.762 L107.35,13.762 L107.35,21 L106.16,21 L106.16,15.092 L102.744,21 L101.218,21 L101.218,13.762 Z M111.802,21.154 C110.840662,21.154 110.089336,20.9393355 109.548,20.51 C109.006664,20.0806645 108.712667,19.4693373 108.666,18.676 L109.87,18.676 C109.907334,19.2080027 110.103332,19.5906655 110.458,19.824 C110.812668,20.0573345 111.255997,20.174 111.788,20.174 C112.357336,20.174 112.795998,20.0526679 113.104,19.81 C113.412002,19.5673321 113.566,19.2593352 113.566,18.886 C113.566,18.5219982 113.449335,18.2373344 113.216,18.032 C112.982666,17.8266656 112.586003,17.724 112.026,17.724 L111.06,17.724 L111.06,16.758 L111.83,16.758 C112.250002,16.758 112.609332,16.6716675 112.908,16.499 C113.206668,16.3263325 113.356,16.0253355 113.356,15.596 C113.356,15.325332 113.227668,15.0873344 112.971,14.882 C112.714332,14.6766656 112.334003,14.574 111.83,14.574 C111.615332,14.574 111.403001,14.5973331 111.193,14.644 C110.982999,14.6906669 110.794001,14.7653328 110.626,14.868 C110.457999,14.9706672 110.318001,15.1059992 110.206,15.274 C110.093999,15.4420008 110.024,15.6473321 109.996,15.89 L108.792,15.89 C108.82,15.4419978 108.927332,15.0710015 109.114,14.777 C109.300668,14.4829985 109.533999,14.2496675 109.814,14.077 C110.094001,13.9043325 110.411332,13.780667 110.766,13.706 C111.120668,13.631333 111.479998,13.594 111.844,13.594 C112.217335,13.594 112.567332,13.631333 112.894,13.706 C113.220668,13.780667 113.507665,13.8996658 113.755,14.063 C114.002335,14.2263341 114.198333,14.4293321 114.343,14.672 C114.487667,14.9146679 114.56,15.2039983 114.56,15.54 C114.56,15.9600021 114.441001,16.3006654 114.203,16.562 C113.964999,16.8233346 113.696668,16.9866663 113.398,17.052 L113.398,17.08 C113.566001,17.1080001 113.733999,17.1639996 113.902,17.248 C114.070001,17.3320004 114.219333,17.4463326 114.35,17.591 C114.480667,17.7356674 114.588,17.9129989 114.672,18.123 C114.756,18.3330011 114.798,18.5779986 114.798,18.858 C114.798,19.250002 114.714001,19.5906652 114.546,19.88 C114.377999,20.1693348 114.154001,20.4073324 113.874,20.594 C113.593999,20.7806676 113.274335,20.9206662 112.915,21.014 C112.555665,21.1073338 112.184669,21.154 111.802,21.154 Z M118.228,21.154 C117.901332,21.154 117.593335,21.1190004 117.304,21.049 C117.014665,20.9789996 116.760334,20.8623342 116.541,20.699 C116.321666,20.5356659 116.149001,20.3256679 116.023,20.069 C115.896999,19.812332 115.834,19.5020018 115.834,19.138 C115.834,18.7273313 115.903999,18.3913346 116.044,18.13 C116.184001,17.8686654 116.368332,17.6563341 116.597,17.493 C116.825668,17.3296659 117.086999,17.2060004 117.381,17.122 C117.675001,17.0379996 117.975998,16.9680003 118.284,16.912 C118.610668,16.8466663 118.920999,16.7976668 119.215,16.765 C119.509001,16.7323332 119.767999,16.685667 119.992,16.625 C120.216001,16.564333 120.393333,16.4756673 120.524,16.359 C120.654667,16.2423328 120.72,16.0720011 120.72,15.848 C120.72,15.5866654 120.671,15.3766675 120.573,15.218 C120.475,15.0593325 120.349001,14.9380004 120.195,14.854 C120.040999,14.7699996 119.868334,14.7140001 119.677,14.686 C119.485666,14.6579999 119.296668,14.644 119.11,14.644 C118.605997,14.644 118.186002,14.7396657 117.85,14.931 C117.513998,15.1223343 117.332,15.4839973 117.304,16.016 L116.114,16.016 C116.132667,15.5679978 116.225999,15.1900015 116.394,14.882 C116.562001,14.5739985 116.785999,14.3243343 117.066,14.133 C117.346001,13.9416657 117.665665,13.8040004 118.025,13.72 C118.384335,13.6359996 118.769331,13.594 119.18,13.594 C119.506668,13.594 119.830998,13.6173331 120.153,13.664 C120.475002,13.7106669 120.766665,13.8063326 121.028,13.951 C121.289335,14.0956674 121.499333,14.2986654 121.658,14.56 C121.816667,14.8213346 121.896,15.1619979 121.896,15.582 L121.896,19.306 C121.896,19.5860014 121.912333,19.7913327 121.945,19.922 C121.977667,20.0526673 122.087332,20.118 122.274,20.118 C122.358,20.118 122.479333,20.0946669 122.638,20.048 L122.638,20.972 C122.432666,21.0933339 122.148002,21.154 121.784,21.154 C121.475998,21.154 121.231001,21.0676675 121.049,20.895 C120.866999,20.7223325 120.776,20.440002 120.776,20.048 C120.449332,20.440002 120.069002,20.7223325 119.635,20.895 C119.200998,21.0676675 118.732003,21.154 118.228,21.154 Z M118.494,20.118 C118.886002,20.118 119.221999,20.0643339 119.502,19.957 C119.782001,19.8496661 120.010666,19.7143341 120.188,19.551 C120.365334,19.3876659 120.496,19.2103343 120.58,19.019 C120.664,18.8276657 120.706,18.6480008 120.706,18.48 L120.706,17.262 C120.556666,17.3833339 120.360668,17.4673331 120.118,17.514 C119.875332,17.5606669 119.621001,17.6026665 119.355,17.64 C119.088999,17.6773335 118.820668,17.7146665 118.55,17.752 C118.279332,17.7893335 118.036668,17.8546662 117.822,17.948 C117.607332,18.0413338 117.432334,18.1743325 117.297,18.347 C117.161666,18.5196675 117.094,18.7553318 117.094,19.054 C117.094,19.250001 117.133666,19.415666 117.213,19.551 C117.292334,19.686334 117.394999,19.7959996 117.521,19.88 C117.647001,19.9640004 117.793999,20.0246665 117.962,20.062 C118.130001,20.0993335 118.307332,20.118 118.494,20.118 Z M129.386,21 L123.744,21 L123.744,13.762 L124.934,13.762 L124.934,19.95 L128.35,19.95 L128.35,13.762 L129.54,13.762 L129.54,19.95 L130.52,19.95 L130.52,23.198 L129.386,23.198 L129.386,21 Z M131.64,13.762 L132.83,13.762 L132.83,19.67 L136.246,13.762 L137.772,13.762 L137.772,21 L136.582,21 L136.582,15.092 L133.166,21 L131.64,21 L131.64,13.762 Z M139.564,13.762 L140.754,13.762 L140.754,19.67 L144.17,13.762 L145.696,13.762 L145.696,21 L144.506,21 L144.506,15.092 L141.09,21 L139.564,21 L139.564,13.762 Z"/>
      </g>
      <circle cx="3" cy="17" r="4" fill="#FFF" stroke="#CD2211" stroke-width="2"/>
      <path fill="#222" d="M16.126,19.88 L17.106,19.88 C17.2926676,19.5439983 17.4653325,19.1240025 17.624,18.62 C17.7826675,18.1159975 17.9203328,17.563003 18.037,16.961 C18.1536672,16.358997 18.2446663,15.71967 18.31,15.043 C18.3753337,14.3663299 18.408,13.6826701 18.408,12.992 L18.408,11.004 L24.848,11.004 L24.848,19.88 L25.954,19.88 L25.954,23.478 L24.68,23.478 L24.68,21 L17.4,21 L17.4,23.478 L16.126,23.478 L16.126,19.88 Z M23.518,19.88 L23.518,12.124 L19.696,12.124 L19.696,13.566 C19.696,14.1820031 19.665667,14.8003302 19.605,15.421 C19.544333,16.0416698 19.4603339,16.6296639 19.353,17.185 C19.2456661,17.7403361 19.124334,18.251331 18.989,18.718 C18.853666,19.184669 18.7113341,19.5719985 18.562,19.88 L23.518,19.88 Z M30.224,21.154 C29.6453304,21.154 29.1390022,21.0583343 28.705,20.867 C28.2709978,20.6756657 27.9046682,20.4096684 27.606,20.069 C27.3073318,19.7283316 27.0833341,19.3293356 26.934,18.872 C26.7846659,18.4146644 26.71,17.9200027 26.71,17.388 C26.71,16.8559973 26.7846659,16.3590023 26.934,15.897 C27.0833341,15.4349977 27.3073318,15.0336684 27.606,14.693 C27.9046682,14.3523316 28.2709978,14.084001 28.705,13.888 C29.1390022,13.691999 29.6453304,13.594 30.224,13.594 C30.7933362,13.594 31.2973311,13.691999 31.736,13.888 C32.1746689,14.084001 32.5433318,14.3523316 32.842,14.693 C33.1406682,15.0336684 33.3646659,15.4349977 33.514,15.897 C33.6633341,16.3590023 33.738,16.8559973 33.738,17.388 C33.738,17.9200027 33.6633341,18.4146644 33.514,18.872 C33.3646659,19.3293356 33.1406682,19.7283316 32.842,20.069 C32.5433318,20.4096684 32.1746689,20.6756657 31.736,20.867 C31.2973311,21.0583343 30.7933362,21.154 30.224,21.154 Z M30.224,20.118 C30.5320015,20.118 30.8236653,20.0573339 31.099,19.936 C31.3743347,19.8146661 31.6146656,19.6396678 31.82,19.411 C32.0253344,19.1823322 32.1863327,18.8976684 32.303,18.557 C32.4196673,18.2163316 32.478,17.8266689 32.478,17.388 C32.478,16.9493311 32.4196673,16.5596684 32.303,16.219 C32.1863327,15.8783316 32.0253344,15.5913345 31.82,15.358 C31.6146656,15.1246655 31.3743347,14.9473339 31.099,14.826 C30.8236653,14.7046661 30.5320015,14.644 30.224,14.644 C29.9159985,14.644 29.6243347,14.7046661 29.349,14.826 C29.0736653,14.9473339 28.8333344,15.1246655 28.628,15.358 C28.4226656,15.5913345 28.2616672,15.8783316 28.145,16.219 C28.0283327,16.5596684 27.97,16.9493311 27.97,17.388 C27.97,17.8266689 28.0283327,18.2163316 28.145,18.557 C28.2616672,18.8976684 28.4226656,19.1823322 28.628,19.411 C28.8333344,19.6396678 29.0736653,19.8146661 29.349,19.936 C29.6243347,20.0573339 29.9159985,20.118 30.224,20.118 Z M39.03,13.762 L40.738,13.762 L42.936,19.628 L42.964,19.628 L45.162,13.762 L46.87,13.762 L46.87,21 L45.68,21 L45.68,15.26 L43.496,21 L42.404,21 L40.22,15.26 L40.22,21 L39.03,21 L39.03,13.762 Z M51.784,21.154 C51.2053304,21.154 50.6990022,21.0583343 50.265,20.867 C49.8309978,20.6756657 49.4646682,20.4096684 49.166,20.069 C48.8673318,19.7283316 48.6433341,19.3293356 48.494,18.872 C48.3446659,18.4146644 48.27,17.9200027 48.27,17.388 C48.27,16.8559973 48.3446659,16.3590023 48.494,15.897 C48.6433341,15.4349977 48.8673318,15.0336684 49.166,14.693 C49.4646682,14.3523316 49.8309978,14.084001 50.265,13.888 C50.6990022,13.691999 51.2053304,13.594 51.784,13.594 C52.3533362,13.594 52.8573311,13.691999 53.296,13.888 C53.7346689,14.084001 54.1033318,14.3523316 54.402,14.693 C54.7006682,15.0336684 54.9246659,15.4349977 55.074,15.897 C55.2233341,16.3590023 55.298,16.8559973 55.298,17.388 C55.298,17.9200027 55.2233341,18.4146644 55.074,18.872 C54.9246659,19.3293356 54.7006682,19.7283316 54.402,20.069 C54.1033318,20.4096684 53.7346689,20.6756657 53.296,20.867 C52.8573311,21.0583343 52.3533362,21.154 51.784,21.154 Z M51.784,20.118 C52.0920015,20.118 52.3836653,20.0573339 52.659,19.936 C52.9343347,19.8146661 53.1746656,19.6396678 53.38,19.411 C53.5853344,19.1823322 53.7463327,18.8976684 53.863,18.557 C53.9796673,18.2163316 54.038,17.8266689 54.038,17.388 C54.038,16.9493311 53.9796673,16.5596684 53.863,16.219 C53.7463327,15.8783316 53.5853344,15.5913345 53.38,15.358 C53.1746656,15.1246655 52.9343347,14.9473339 52.659,14.826 C52.3836653,14.7046661 52.0920015,14.644 51.784,14.644 C51.4759985,14.644 51.1843347,14.7046661 50.909,14.826 C50.6336653,14.9473339 50.3933344,15.1246655 50.188,15.358 C49.9826656,15.5913345 49.8216673,15.8783316 49.705,16.219 C49.5883328,16.5596684 49.53,16.9493311 49.53,17.388 C49.53,17.8266689 49.5883328,18.2163316 49.705,18.557 C49.8216673,18.8976684 49.9826656,19.1823322 50.188,19.411 C50.3933344,19.6396678 50.6336653,19.8146661 50.909,19.936 C51.1843347,20.0573339 51.4759985,20.118 51.784,20.118 Z M56.698,13.762 L57.888,13.762 L57.888,16.646 L61.556,16.646 L61.556,13.762 L62.746,13.762 L62.746,21 L61.556,21 L61.556,17.668 L57.888,17.668 L57.888,21 L56.698,21 L56.698,13.762 Z M67.618,21.154 C67.0393304,21.154 66.5330022,21.0606676 66.099,20.874 C65.6649978,20.6873324 65.3033348,20.4260017 65.014,20.09 C64.7246652,19.7539983 64.5076674,19.352669 64.363,18.886 C64.2183326,18.419331 64.146,17.9106694 64.146,17.36 C64.146,16.818664 64.2299992,16.3170023 64.398,15.855 C64.5660008,15.3929977 64.8016651,14.9940017 65.105,14.658 C65.4083348,14.3219983 65.7676646,14.0606676 66.183,13.874 C66.5983354,13.6873324 67.0533309,13.594 67.548,13.594 C68.1920032,13.594 68.7263312,13.7269987 69.151,13.993 C69.5756688,14.2590013 69.916332,14.5973313 70.173,15.008 C70.4296679,15.4186687 70.6069995,15.8666642 70.705,16.352 C70.8030005,16.8373358 70.8426668,17.2993311 70.824,17.738 L65.406,17.738 C65.3966666,18.0553349 65.4339996,18.3563319 65.518,18.641 C65.6020004,18.9256681 65.7373324,19.1776656 65.924,19.397 C66.1106676,19.6163344 66.3486652,19.7913327 66.638,19.922 C66.9273348,20.0526673 67.267998,20.118 67.66,20.118 C68.1640025,20.118 68.5769984,20.0013345 68.899,19.768 C69.2210016,19.5346655 69.4333328,19.1800024 69.536,18.704 L70.712,18.704 C70.5533325,19.5253374 70.203336,20.138998 69.662,20.545 C69.120664,20.951002 68.4393374,21.154 67.618,21.154 Z M69.564,16.688 C69.5453332,16.4079986 69.4823339,16.1420013 69.375,15.89 C69.2676661,15.6379987 69.1230009,15.4210009 68.941,15.239 C68.7589991,15.0569991 68.5443346,14.9123339 68.297,14.805 C68.0496654,14.6976661 67.7766682,14.644 67.478,14.644 C67.1699985,14.644 66.8923346,14.6976661 66.645,14.805 C66.3976654,14.9123339 66.1853342,15.0593324 66.008,15.246 C65.8306658,15.4326676 65.6906672,15.6496654 65.588,15.897 C65.4853328,16.1443346 65.4246668,16.4079986 65.406,16.688 L69.564,16.688 Z M73.806,14.812 L71.216,14.812 L71.216,13.762 L77.586,13.762 L77.586,14.812 L74.996,14.812 L74.996,21 L73.806,21 L73.806,14.812 Z M78.538,13.762 L79.728,13.762 L79.728,19.67 L83.144,13.762 L84.67,13.762 L84.67,21 L83.48,21 L83.48,15.092 L80.064,21 L78.538,21 L78.538,13.762 Z M89.122,21.154 C88.1606619,21.154 87.409336,20.9393355 86.868,20.51 C86.326664,20.0806645 86.0326669,19.4693373 85.986,18.676 L87.19,18.676 C87.2273335,19.2080027 87.4233316,19.5906655 87.778,19.824 C88.1326684,20.0573345 88.5759973,20.174 89.108,20.174 C89.6773362,20.174 90.1159985,20.0526679 90.424,19.81 C90.7320015,19.5673321 90.886,19.2593352 90.886,18.886 C90.886,18.5219982 90.7693345,18.2373344 90.536,18.032 C90.3026655,17.8266656 89.9060028,17.724 89.346,17.724 L88.38,17.724 L88.38,16.758 L89.15,16.758 C89.5700021,16.758 89.9293318,16.6716675 90.228,16.499 C90.5266682,16.3263325 90.676,16.0253355 90.676,15.596 C90.676,15.325332 90.547668,15.0873344 90.291,14.882 C90.0343321,14.6766656 89.6540025,14.574 89.15,14.574 C88.9353323,14.574 88.723001,14.5973331 88.513,14.644 C88.302999,14.6906669 88.1140008,14.7653328 87.946,14.868 C87.7779992,14.9706672 87.6380006,15.1059992 87.526,15.274 C87.4139994,15.4420008 87.3440001,15.6473321 87.316,15.89 L86.112,15.89 C86.1400001,15.4419978 86.2473324,15.0710015 86.434,14.777 C86.6206676,14.4829985 86.8539986,14.2496675 87.134,14.077 C87.4140014,13.9043325 87.7313316,13.780667 88.086,13.706 C88.4406684,13.631333 88.7999982,13.594 89.164,13.594 C89.5373352,13.594 89.8873317,13.631333 90.214,13.706 C90.5406683,13.780667 90.8276654,13.8996658 91.075,14.063 C91.3223346,14.2263341 91.5183326,14.4293321 91.663,14.672 C91.8076674,14.9146679 91.88,15.2039983 91.88,15.54 C91.88,15.9600021 91.7610012,16.3006654 91.523,16.562 C91.2849988,16.8233346 91.0166682,16.9866663 90.718,17.052 L90.718,17.08 C90.8860008,17.1080001 91.0539992,17.1639996 91.222,17.248 C91.3900008,17.3320004 91.5393327,17.4463326 91.67,17.591 C91.8006673,17.7356674 91.9079996,17.9129989 91.992,18.123 C92.0760004,18.3330011 92.118,18.5779986 92.118,18.858 C92.118,19.250002 92.0340008,19.5906652 91.866,19.88 C91.6979992,20.1693348 91.4740014,20.4073324 91.194,20.594 C90.9139986,20.7806676 90.5943351,20.9206662 90.235,21.014 C89.8756649,21.1073338 89.5046686,21.154 89.122,21.154 Z M95.548,21.154 C95.2213317,21.154 94.9133348,21.1190004 94.624,21.049 C94.3346652,20.9789996 94.0803344,20.8623342 93.861,20.699 C93.6416656,20.5356659 93.4690006,20.3256679 93.343,20.069 C93.2169994,19.812332 93.154,19.5020018 93.154,19.138 C93.154,18.7273313 93.2239993,18.3913346 93.364,18.13 C93.5040007,17.8686654 93.6883322,17.6563341 93.917,17.493 C94.1456678,17.3296659 94.4069985,17.2060004 94.701,17.122 C94.9950015,17.0379996 95.2959985,16.9680003 95.604,16.912 C95.9306683,16.8466663 96.2409985,16.7976668 96.535,16.765 C96.8290015,16.7323332 97.0879989,16.685667 97.312,16.625 C97.5360011,16.564333 97.7133327,16.4756673 97.844,16.359 C97.9746673,16.2423328 98.04,16.0720011 98.04,15.848 C98.04,15.5866654 97.9910005,15.3766675 97.893,15.218 C97.7949995,15.0593325 97.6690008,14.9380004 97.515,14.854 C97.3609992,14.7699996 97.1883343,14.7140001 96.997,14.686 C96.8056657,14.6579999 96.6166676,14.644 96.43,14.644 C95.9259975,14.644 95.5060017,14.7396657 95.17,14.931 C94.8339983,15.1223343 94.6520001,15.4839973 94.624,16.016 L93.434,16.016 C93.4526668,15.5679978 93.5459992,15.1900015 93.714,14.882 C93.8820008,14.5739985 94.1059986,14.3243343 94.386,14.133 C94.6660014,13.9416657 94.9856649,13.8040004 95.345,13.72 C95.7043351,13.6359996 96.0893313,13.594 96.5,13.594 C96.8266683,13.594 97.1509984,13.6173331 97.473,13.664 C97.7950016,13.7106669 98.0866654,13.8063326 98.348,13.951 C98.6093346,14.0956674 98.8193325,14.2986654 98.978,14.56 C99.1366675,14.8213346 99.216,15.1619979 99.216,15.582 L99.216,19.306 C99.216,19.5860014 99.2323332,19.7913327 99.265,19.922 C99.2976668,20.0526673 99.4073324,20.118 99.594,20.118 C99.6780004,20.118 99.7993325,20.0946669 99.958,20.048 L99.958,20.972 C99.7526656,21.0933339 99.4680018,21.154 99.104,21.154 C98.7959985,21.154 98.5510009,21.0676675 98.369,20.895 C98.1869991,20.7223325 98.096,20.440002 98.096,20.048 C97.7693317,20.440002 97.3890022,20.7223325 96.955,20.895 C96.5209978,21.0676675 96.0520025,21.154 95.548,21.154 Z M95.814,20.118 C96.206002,20.118 96.5419986,20.0643339 96.822,19.957 C97.1020014,19.8496661 97.3306658,19.7143341 97.508,19.551 C97.6853342,19.3876659 97.8159996,19.2103343 97.9,19.019 C97.9840004,18.8276657 98.026,18.6480008 98.026,18.48 L98.026,17.262 C97.8766659,17.3833339 97.6806679,17.4673331 97.438,17.514 C97.1953321,17.5606669 96.9410013,17.6026665 96.675,17.64 C96.4089987,17.6773335 96.140668,17.7146665 95.87,17.752 C95.599332,17.7893335 95.3566677,17.8546662 95.142,17.948 C94.9273323,18.0413338 94.752334,18.1743325 94.617,18.347 C94.481666,18.5196675 94.414,18.7553318 94.414,19.054 C94.414,19.250001 94.4536663,19.415666 94.533,19.551 C94.6123337,19.686334 94.7149994,19.7959996 94.841,19.88 C94.9670006,19.9640004 95.1139992,20.0246665 95.282,20.062 C95.4500008,20.0993335 95.6273324,20.118 95.814,20.118 Z M106.706,21 L101.064,21 L101.064,13.762 L102.254,13.762 L102.254,19.95 L105.67,19.95 L105.67,13.762 L106.86,13.762 L106.86,19.95 L107.84,19.95 L107.84,23.198 L106.706,23.198 L106.706,21 Z M108.96,13.762 L110.15,13.762 L110.15,19.67 L113.566,13.762 L115.092,13.762 L115.092,21 L113.902,21 L113.902,15.092 L110.486,21 L108.96,21 L108.96,13.762 Z M116.884,13.762 L118.074,13.762 L118.074,19.67 L121.49,13.762 L123.016,13.762 L123.016,21 L121.826,21 L121.826,15.092 L118.41,21 L116.884,21 L116.884,13.762 Z"/>
    </g>
    <g transform="translate(442 147)">
      <use fill="#000" filter="url(#chart-c)" xlink:href="#chart-d"/>
      <use fill="#2F3843" xlink:href="#chart-d"/>
      <circle cx="9" cy="9" r="3" fill="#FFF"/>
    </g>
    <g transform="translate(358 203)">
      <use fill="#000" filter="url(#chart-e)" xlink:href="#chart-f"/>
      <use fill="#CD2211" xlink:href="#chart-f"/>
      <circle cx="9" cy="9" r="3" fill="#FFF"/>
    </g>
  </g>
</svg>
