<svg xmlns="http://www.w3.org/2000/svg" width="345" height="295" viewBox="0 0 345 295">
  <g fill="none" fill-rule="evenodd">
    <polygon fill="#CD2211" points="0 0 150 147.5 300 295 0 295"/>
    <path fill="#1D1D1D" d="M10.336,9.868 L14.326,9.868 L24.928,37 L20.938,37 L17.974,28.83 L6.498,28.83 L3.458,37 L-0.228,37 L10.336,9.868 Z M16.834,25.79 L12.312,13.136 L12.236,13.136 L7.638,25.79 L16.834,25.79 Z M26.904,37.228 C26.574665,37.228 26.2326684,37.1963336 25.878,37.133 C25.5233316,37.0696664 25.2320011,37.0126669 25.004,36.962 L25.004,34.112 C25.2573346,34.1880004 25.4916656,34.2386665 25.707,34.264 C25.9223344,34.2893335 26.1313323,34.302 26.334,34.302 C27.1700042,34.302 27.8096644,33.97267 28.253,33.314 C28.6963356,32.65533 29.0256656,31.6420068 29.241,30.274 C29.4563344,28.9059932 29.5893331,27.1516774 29.64,25.011 C29.6906669,22.8703226 29.7413331,20.3180148 29.792,17.354 L43.586,17.354 L43.586,37 L40.356,37 L40.356,20.204 L32.908,20.204 C32.8319996,22.5093449 32.7496671,24.694323 32.661,26.759 C32.5723329,28.823677 32.3506684,30.6286589 31.996,32.174 C31.6413316,33.7193411 31.0713373,34.9479954 30.286,35.86 C29.5006627,36.7720046 28.3733407,37.228 26.904,37.228 Z M48.64,17.354 L51.87,17.354 L51.87,24.878 L58.862,24.878 C60.787343,24.878 62.3326608,25.4036614 63.498,26.455 C64.6633392,27.5063386 65.246,28.9819905 65.246,30.882 C65.246,32.7313426 64.6886722,34.2133278 63.574,35.328 C62.4593278,36.4426722 60.939343,37 59.014,37 L48.64,37 L48.64,17.354 Z M57.836,34.15 C60.5466802,34.15 61.902,33.0606776 61.902,30.882 C61.902,28.7286559 60.5466802,27.652 57.836,27.652 L51.87,27.652 L51.87,34.15 L57.836,34.15 Z M73.492,20.204 L66.462,20.204 L66.462,17.354 L83.752,17.354 L83.752,20.204 L76.722,20.204 L76.722,37 L73.492,37 L73.492,20.204 Z M94.696,37.418 C93.1253255,37.418 91.7510059,37.1646692 90.573,36.658 C89.3949941,36.1513308 88.4133373,35.4420046 87.628,34.53 C86.8426627,33.6179954 86.2536686,32.528673 85.861,31.262 C85.4683314,29.995327 85.272,28.6146741 85.272,27.12 C85.272,25.6506593 85.4999977,24.2890063 85.956,23.035 C86.4120023,21.7809937 87.0516626,20.6980046 87.875,19.786 C88.6983375,18.8739954 89.673661,18.1646692 90.801,17.658 C91.928339,17.1513308 93.1633266,16.898 94.506,16.898 C96.2540087,16.898 97.7043276,17.2589964 98.857,17.981 C100.009672,18.7030036 100.93433,19.6213278 101.631,20.736 C102.32767,21.8506722 102.808999,23.0666601 103.075,24.384 C103.341001,25.7013399 103.448667,26.9553274 103.398,28.146 L88.692,28.146 C88.6666665,29.0073376 88.7679989,29.8243295 88.996,30.597 C89.2240011,31.3696705 89.5913308,32.0536637 90.098,32.649 C90.6046692,33.2443363 91.2506627,33.7193316 92.036,34.074 C92.8213373,34.4286684 93.7459947,34.606 94.81,34.606 C96.1780068,34.606 97.2989956,34.2893365 98.173,33.656 C99.0470044,33.0226635 99.6233319,32.0600065 99.902,30.768 L103.094,30.768 C102.663331,32.9973445 101.713341,34.6629945 100.244,35.765 C98.7746593,36.8670055 96.9253445,37.418 94.696,37.418 Z M99.978,25.296 C99.9273331,24.5359962 99.7563348,23.8140034 99.465,23.13 C99.1736652,22.4459966 98.7810025,21.8570025 98.287,21.363 C97.7929975,20.8689975 97.2103367,20.4763348 96.539,20.185 C95.8676633,19.8936652 95.1266707,19.748 94.316,19.748 C93.4799958,19.748 92.7263367,19.8936652 92.055,20.185 C91.3836633,20.4763348 90.8073357,20.8753308 90.326,21.382 C89.8446643,21.8886692 89.4646681,22.4776633 89.186,23.149 C88.9073319,23.8203367 88.7426669,24.5359962 88.692,25.296 L99.978,25.296 Z M106.856,17.354 L110.086,17.354 L110.086,20.014 L110.162,20.014 C110.694003,18.9246612 111.529994,18.1330025 112.67,17.639 C113.810006,17.1449975 115.063993,16.898 116.432,16.898 C117.952008,16.898 119.275661,17.1766639 120.403,17.734 C121.530339,18.2913361 122.467663,19.0449952 123.215,19.995 C123.962337,20.9450048 124.525998,22.0406605 124.906,23.282 C125.286002,24.5233395 125.476,25.8406597 125.476,27.234 C125.476,28.6526738 125.292335,29.9763272 124.925,31.205 C124.557665,32.4336728 124.000337,33.5103287 123.253,34.435 C122.505663,35.3596713 121.568339,36.0879973 120.441,36.62 C119.313661,37.1520027 118.002674,37.418 116.508,37.418 C116.001331,37.418 115.45667,37.3673338 114.874,37.266 C114.29133,37.1646662 113.70867,37.0000011 113.126,36.772 C112.54333,36.5439989 111.992336,36.2336686 111.473,35.841 C110.953664,35.4483314 110.516668,34.9606696 110.162,34.378 L110.086,34.378 L110.086,44.486 L106.856,44.486 L106.856,17.354 Z M116.166,34.606 C117.255339,34.606 118.179996,34.3906688 118.94,33.96 C119.700004,33.5293312 120.307998,32.9593369 120.764,32.25 C121.220002,31.5406631 121.549332,30.7300046 121.752,29.818 C121.954668,28.9059954 122.056,27.9686715 122.056,27.006 C122.056,26.0939954 121.935668,25.2010044 121.695,24.327 C121.454332,23.4529956 121.087002,22.6740034 120.593,21.99 C120.098998,21.3059966 119.465671,20.7613354 118.693,20.356 C117.920329,19.9506646 117.014672,19.748 115.976,19.748 C114.886661,19.748 113.962004,19.9633312 113.202,20.394 C112.441996,20.8246688 111.821336,21.3883299 111.34,22.085 C110.858664,22.7816701 110.510334,23.5733289 110.295,24.46 C110.079666,25.3466711 109.972,26.2459954 109.972,27.158 C109.972,28.1206715 110.085999,29.0516622 110.314,29.951 C110.542001,30.8503378 110.902998,31.6419966 111.397,32.326 C111.891002,33.0100034 112.530663,33.5609979 113.316,33.979 C114.101337,34.3970021 115.051328,34.606 116.166,34.606 Z M134.71,37.418 C133.823329,37.418 132.987337,37.3230009 132.202,37.133 C131.416663,36.942999 130.726336,36.6263356 130.131,36.183 C129.535664,35.7396644 129.067002,35.1696702 128.725,34.473 C128.382998,33.7763298 128.212,32.9340049 128.212,31.946 C128.212,30.8313278 128.401998,29.9193369 128.782,29.21 C129.162002,28.5006631 129.66233,27.9243356 130.283,27.481 C130.90367,27.0376645 131.612996,26.7020011 132.411,26.474 C133.209004,26.2459989 134.025996,26.0560008 134.862,25.904 C135.748671,25.7266658 136.590996,25.5936671 137.389,25.505 C138.187004,25.4163329 138.889997,25.2896675 139.498,25.125 C140.106003,24.9603325 140.587332,24.7196682 140.942,24.403 C141.296668,24.0863317 141.474,23.624003 141.474,23.016 C141.474,22.3066631 141.341001,21.7366688 141.075,21.306 C140.808999,20.8753312 140.467002,20.5460011 140.049,20.318 C139.630998,20.0899989 139.162336,19.9380004 138.643,19.862 C138.123664,19.7859996 137.610669,19.748 137.104,19.748 C135.735993,19.748 134.596005,20.0076641 133.684,20.527 C132.771995,21.0463359 132.278,22.0279928 132.202,23.472 L128.972,23.472 C129.022667,22.2559939 129.275998,21.2300042 129.732,20.394 C130.188002,19.5579958 130.795996,18.8803359 131.556,18.361 C132.316004,17.8416641 133.183662,17.4680011 134.159,17.24 C135.134338,17.0119989 136.179328,16.898 137.294,16.898 C138.180671,16.898 139.060996,16.9613327 139.935,17.088 C140.809004,17.2146673 141.600663,17.4743314 142.31,17.867 C143.019337,18.2596686 143.589331,18.8106631 144.02,19.52 C144.450669,20.2293369 144.666,21.1539943 144.666,22.294 L144.666,32.402 C144.666,33.1620038 144.710333,33.7193316 144.799,34.074 C144.887667,34.4286684 145.185331,34.606 145.692,34.606 C145.920001,34.606 146.249331,34.5426673 146.68,34.416 L146.68,36.924 C146.122664,37.253335 145.350005,37.418 144.362,37.418 C143.525996,37.418 142.861002,37.183669 142.367,36.715 C141.872998,36.246331 141.626,35.4800053 141.626,34.416 C140.739329,35.4800053 139.707006,36.246331 138.529,36.715 C137.350994,37.183669 136.078007,37.418 134.71,37.418 Z M135.432,34.606 C136.496005,34.606 137.407996,34.4603348 138.168,34.169 C138.928004,33.8776652 139.548664,33.5103355 140.03,33.067 C140.511336,32.6236645 140.865999,32.1423359 141.094,31.623 C141.322001,31.1036641 141.436,30.6160023 141.436,30.16 L141.436,26.854 C141.030665,27.183335 140.49867,27.4113327 139.84,27.538 C139.18133,27.6646673 138.491004,27.7786662 137.769,27.88 C137.046996,27.9813338 136.31867,28.0826662 135.584,28.184 C134.84933,28.2853338 134.19067,28.4626654 133.608,28.716 C133.02533,28.9693346 132.550335,29.330331 132.183,29.799 C131.815665,30.267669 131.632,30.9073293 131.632,31.718 C131.632,32.2500027 131.739666,32.6996648 131.955,33.067 C132.170334,33.4343352 132.448998,33.7319989 132.791,33.96 C133.133002,34.1880011 133.531998,34.3526662 133.988,34.454 C134.444002,34.5553338 134.925331,34.606 135.432,34.606 Z M160.778,9.868 L164.388,9.868 L164.388,32.858 L178.03,9.868 L182.59,9.868 L182.59,37 L178.98,37 L178.98,13.934 L165.3,37 L160.778,37 L160.778,9.868 Z M187.986,17.354 L191.216,17.354 L191.216,25.182 L201.172,25.182 L201.172,17.354 L204.402,17.354 L204.402,37 L201.172,37 L201.172,27.956 L191.216,27.956 L191.216,37 L187.986,37 L187.986,17.354 Z M209.266,17.354 L218.348,17.354 C219.209338,17.354 220.038996,17.4173327 220.837,17.544 C221.635004,17.6706673 222.350663,17.9049983 222.984,18.247 C223.617336,18.5890017 224.123998,19.0766635 224.504,19.71 C224.884002,20.3433365 225.074,21.1539951 225.074,22.142 C225.074,23.2060053 224.820669,24.06733 224.314,24.726 C223.807331,25.38467 223.098005,25.9293312 222.186,26.36 L222.186,26.398 C223.326006,26.6260011 224.231663,27.1579958 224.903,27.994 C225.574337,28.8300042 225.91,29.9066601 225.91,31.224 C225.91,32.0600042 225.764335,32.8326631 225.473,33.542 C225.181665,34.2513369 224.770003,34.8593308 224.238,35.366 C223.705997,35.8726692 223.07267,36.2716652 222.338,36.563 C221.60333,36.8543348 220.805338,37 219.944,37 L209.266,37 L209.266,17.354 Z M219.336,34.264 C220.400005,34.264 221.204331,33.9536698 221.749,33.333 C222.293669,32.7123302 222.566,31.933338 222.566,30.996 C222.566,30.1093289 222.27467,29.4000027 221.692,28.868 C221.10933,28.3359973 220.134007,28.07 218.766,28.07 L212.458,28.07 L212.458,34.264 L219.336,34.264 Z M218.006,25.41 C219.39934,25.41 220.368331,25.1566692 220.913,24.65 C221.457669,24.1433308 221.73,23.4720042 221.73,22.636 C221.73,21.8253293 221.464003,21.1983355 220.932,20.755 C220.399997,20.3116644 219.424674,20.09 218.006,20.09 L212.458,20.09 L212.458,25.41 L218.006,25.41 Z M238.146,37.418 C236.575325,37.418 235.201006,37.1646692 234.023,36.658 C232.844994,36.1513308 231.863337,35.4420046 231.078,34.53 C230.292663,33.6179954 229.703669,32.528673 229.311,31.262 C228.918331,29.995327 228.722,28.6146741 228.722,27.12 C228.722,25.6506593 228.949998,24.2890063 229.406,23.035 C229.862002,21.7809937 230.501663,20.6980046 231.325,19.786 C232.148337,18.8739954 233.123661,18.1646692 234.251,17.658 C235.378339,17.1513308 236.613327,16.898 237.956,16.898 C239.704009,16.898 241.154328,17.2589964 242.307,17.981 C243.459672,18.7030036 244.38433,19.6213278 245.081,20.736 C245.77767,21.8506722 246.258999,23.0666601 246.525,24.384 C246.791001,25.7013399 246.898667,26.9553274 246.848,28.146 L232.142,28.146 C232.116667,29.0073376 232.217999,29.8243295 232.446,30.597 C232.674001,31.3696705 233.041331,32.0536637 233.548,32.649 C234.054669,33.2443363 234.700663,33.7193316 235.486,34.074 C236.271337,34.4286684 237.195995,34.606 238.26,34.606 C239.628007,34.606 240.748996,34.2893365 241.623,33.656 C242.497004,33.0226635 243.073332,32.0600065 243.352,30.768 L246.544,30.768 C246.113331,32.9973445 245.163341,34.6629945 243.694,35.765 C242.224659,36.8670055 240.375344,37.418 238.146,37.418 Z M243.428,25.296 C243.377333,24.5359962 243.206335,23.8140034 242.915,23.13 C242.623665,22.4459966 242.231002,21.8570025 241.737,21.363 C241.242998,20.8689975 240.660337,20.4763348 239.989,20.185 C239.317663,19.8936652 238.576671,19.748 237.766,19.748 C236.929996,19.748 236.176337,19.8936652 235.505,20.185 C234.833663,20.4763348 234.257336,20.8753308 233.776,21.382 C233.294664,21.8886692 232.914668,22.4776633 232.636,23.149 C232.357332,23.8203367 232.192667,24.5359962 232.142,25.296 L243.428,25.296 Z M258.324,37.418 C256.829326,37.418 255.505672,37.1773357 254.353,36.696 C253.200328,36.2146643 252.237671,35.5306711 251.465,34.644 C250.692329,33.7573289 250.109669,32.7060061 249.717,31.49 C249.324331,30.2739939 249.128,28.9186741 249.128,27.424 C249.128,25.9546593 249.317998,24.5803397 249.698,23.301 C250.078002,22.0216603 250.654329,20.9070047 251.427,19.957 C252.199671,19.0069952 253.162328,18.2596694 254.315,17.715 C255.467672,17.1703306 256.829325,16.898 258.4,16.898 C259.514672,16.898 260.559662,17.0309987 261.535,17.297 C262.510338,17.5630013 263.371663,17.9746639 264.119,18.532 C264.866337,19.0893361 265.480664,19.7923291 265.962,20.641 C266.443336,21.4896709 266.747333,22.4966608 266.874,23.662 L263.53,23.662 C263.276665,22.4206605 262.744671,21.4580034 261.934,20.774 C261.123329,20.0899966 260.034007,19.748 258.666,19.748 C257.500661,19.748 256.525337,19.9633312 255.74,20.394 C254.954663,20.8246688 254.327669,21.3946631 253.859,22.104 C253.390331,22.8133369 253.054668,23.6303287 252.852,24.555 C252.649332,25.4796713 252.548,26.4359951 252.548,27.424 C252.548,28.3360046 252.655666,29.2226624 252.871,30.084 C253.086334,30.9453376 253.421998,31.7116633 253.878,32.383 C254.334002,33.0543367 254.922996,33.5926646 255.645,33.998 C256.367004,34.4033354 257.247328,34.606 258.286,34.606 C259.882008,34.606 261.129662,34.1880042 262.029,33.352 C262.928338,32.5159958 263.479332,31.3380076 263.682,29.818 L266.988,29.818 C266.633332,32.2753456 265.734007,34.1563268 264.29,35.461 C262.845993,36.7656732 260.857346,37.418 258.324,37.418 Z M275.348,20.204 L268.318,20.204 L268.318,17.354 L285.608,17.354 L285.608,20.204 L278.578,20.204 L278.578,37 L275.348,37 L275.348,20.204 Z M2.964,53.868 L6.574,53.868 L6.574,67.016 L20.33,53.868 L25.004,53.868 L12.084,65.952 L25.46,81 L20.9,81 L9.348,68.156 L6.574,70.74 L6.574,81 L2.964,81 L2.964,53.868 Z M36.252,81.418 C34.6813255,81.418 33.3070059,81.1583359 32.129,80.639 C30.9509941,80.1196641 29.9566707,79.3976713 29.146,78.473 C28.3353293,77.5483287 27.7273354,76.4653395 27.322,75.224 C26.9166646,73.9826605 26.714,72.6400072 26.714,71.196 C26.714,69.7519928 26.9166646,68.4030063 27.322,67.149 C27.7273354,65.8949937 28.3353293,64.8056713 29.146,63.881 C29.9566707,62.9563287 30.9509941,62.2280027 32.129,61.696 C33.3070059,61.1639973 34.6813255,60.898 36.252,60.898 C37.7973411,60.898 39.1653274,61.1639973 40.356,61.696 C41.5466726,62.2280027 42.5473293,62.9563287 43.358,63.881 C44.1686707,64.8056713 44.7766646,65.8949937 45.182,67.149 C45.5873354,68.4030063 45.79,69.7519928 45.79,71.196 C45.79,72.6400072 45.5873354,73.9826605 45.182,75.224 C44.7766646,76.4653395 44.1686707,77.5483287 43.358,78.473 C42.5473293,79.3976713 41.5466726,80.1196641 40.356,80.639 C39.1653274,81.1583359 37.7973411,81.418 36.252,81.418 Z M36.252,78.606 C37.0880042,78.606 37.8796629,78.441335 38.627,78.112 C39.3743371,77.782665 40.0266639,77.3076698 40.584,76.687 C41.1413361,76.0663302 41.5783318,75.2936713 41.895,74.369 C42.2116683,73.4443287 42.37,72.3866726 42.37,71.196 C42.37,70.0053274 42.2116683,68.9476713 41.895,68.023 C41.5783318,67.0983287 41.1413361,66.3193365 40.584,65.686 C40.0266639,65.0526635 39.3743371,64.571335 38.627,64.242 C37.8796629,63.912665 37.0880042,63.748 36.252,63.748 C35.4159958,63.748 34.6243371,63.912665 33.877,64.242 C33.1296629,64.571335 32.4773361,65.0526635 31.92,65.686 C31.3626639,66.3193365 30.9256683,67.0983287 30.609,68.023 C30.2923318,68.9476713 30.134,70.0053274 30.134,71.196 C30.134,72.3866726 30.2923318,73.4443287 30.609,74.369 C30.9256683,75.2936713 31.3626639,76.0663302 31.92,76.687 C32.4773361,77.3076698 33.1296629,77.782665 33.877,78.112 C34.6243371,78.441335 35.4159958,78.606 36.252,78.606 Z M49.59,61.354 L52.82,61.354 L52.82,69.182 L62.776,69.182 L62.776,61.354 L66.006,61.354 L66.006,81 L62.776,81 L62.776,71.956 L52.82,71.956 L52.82,81 L49.59,81 L49.59,61.354 Z M79.002,81.418 C77.5073259,81.418 76.1836724,81.1773357 75.031,80.696 C73.8783276,80.2146643 72.9156705,79.5306711 72.143,78.644 C71.3703295,77.7573289 70.7876686,76.7060061 70.395,75.49 C70.0023314,74.2739939 69.806,72.9186741 69.806,71.424 C69.806,69.9546593 69.9959981,68.5803397 70.376,67.301 C70.7560019,66.0216603 71.3323295,64.9070047 72.105,63.957 C72.8776705,63.0069953 73.8403276,62.2596694 74.993,61.715 C76.1456724,61.1703306 77.5073255,60.898 79.078,60.898 C80.1926722,60.898 81.2376618,61.0309987 82.213,61.297 C83.1883382,61.5630013 84.0496629,61.9746639 84.797,62.532 C85.5443371,63.0893361 86.1586643,63.7923291 86.64,64.641 C87.1213357,65.4896709 87.4253327,66.4966608 87.552,67.662 L84.208,67.662 C83.9546654,66.4206605 83.4226707,65.4580034 82.612,64.774 C81.8013293,64.0899966 80.7120068,63.748 79.344,63.748 C78.1786608,63.748 77.2033373,63.9633312 76.418,64.394 C75.6326627,64.8246688 75.005669,65.3946631 74.537,66.104 C74.068331,66.8133369 73.7326677,67.6303287 73.53,68.555 C73.3273323,69.4796713 73.226,70.4359951 73.226,71.424 C73.226,72.3360046 73.3336656,73.2226624 73.549,74.084 C73.7643344,74.9453376 74.0999977,75.7116633 74.556,76.383 C75.0120023,77.0543367 75.6009964,77.5926646 76.323,77.998 C77.0450036,78.4033354 77.9253281,78.606 78.964,78.606 C80.560008,78.606 81.8076622,78.1880042 82.707,77.352 C83.6063378,76.5159958 84.1573323,75.3380076 84.36,73.818 L87.666,73.818 C87.3113316,76.2753456 86.4120072,78.1563268 84.968,79.461 C83.5239928,80.7656732 81.535346,81.418 79.002,81.418 Z M96.71,81.418 C95.8233289,81.418 94.9873373,81.3230009 94.202,81.133 C93.4166627,80.942999 92.7263363,80.6263355 92.131,80.183 C91.5356637,79.7396644 91.0670017,79.1696702 90.725,78.473 C90.3829983,77.7763298 90.212,76.9340049 90.212,75.946 C90.212,74.8313278 90.4019981,73.9193369 90.782,73.21 C91.1620019,72.5006631 91.6623302,71.9243355 92.283,71.481 C92.9036698,71.0376644 93.612996,70.7020011 94.411,70.474 C95.209004,70.2459989 96.0259958,70.0560008 96.862,69.904 C97.7486711,69.7266658 98.590996,69.5936671 99.389,69.505 C100.187004,69.4163329 100.889997,69.2896675 101.498,69.125 C102.106003,68.9603325 102.587332,68.7196682 102.942,68.403 C103.296668,68.0863317 103.474,67.624003 103.474,67.016 C103.474,66.3066631 103.341001,65.7366688 103.075,65.306 C102.808999,64.8753312 102.467002,64.5460011 102.049,64.318 C101.630998,64.0899989 101.162336,63.9380004 100.643,63.862 C100.123664,63.7859996 99.6106692,63.748 99.104,63.748 C97.7359932,63.748 96.5960046,64.0076641 95.684,64.527 C94.7719954,65.0463359 94.2780004,66.0279928 94.202,67.472 L90.972,67.472 C91.0226669,66.2559939 91.2759977,65.2300042 91.732,64.394 C92.1880023,63.5579958 92.7959962,62.8803359 93.556,62.361 C94.3160038,61.8416641 95.1836618,61.4680011 96.159,61.24 C97.1343382,61.0119989 98.1793278,60.898 99.294,60.898 C100.180671,60.898 101.060996,60.9613327 101.935,61.088 C102.809004,61.2146673 103.600663,61.4743314 104.31,61.867 C105.019337,62.2596686 105.589331,62.8106631 106.02,63.52 C106.450669,64.2293369 106.666,65.1539943 106.666,66.294 L106.666,76.402 C106.666,77.1620038 106.710333,77.7193316 106.799,78.074 C106.887667,78.4286684 107.185331,78.606 107.692,78.606 C107.920001,78.606 108.249331,78.5426673 108.68,78.416 L108.68,80.924 C108.122664,81.253335 107.350005,81.418 106.362,81.418 C105.525996,81.418 104.861002,81.183669 104.367,80.715 C103.872998,80.246331 103.626,79.4800053 103.626,78.416 C102.739329,79.4800053 101.707006,80.246331 100.529,80.715 C99.3509941,81.183669 98.0780068,81.418 96.71,81.418 Z M97.432,78.606 C98.4960053,78.606 99.4079962,78.4603348 100.168,78.169 C100.928004,77.8776652 101.548664,77.5103355 102.03,77.067 C102.511336,76.6236645 102.865999,76.1423359 103.094,75.623 C103.322001,75.1036641 103.436,74.6160023 103.436,74.16 L103.436,70.854 C103.030665,71.183335 102.49867,71.4113327 101.84,71.538 C101.18133,71.6646673 100.491004,71.7786662 99.769,71.88 C99.0469964,71.9813338 98.3186703,72.0826662 97.584,72.184 C96.8493297,72.2853338 96.1906696,72.4626654 95.608,72.716 C95.0253304,72.9693346 94.5503352,73.330331 94.183,73.799 C93.8156648,74.267669 93.632,74.9073293 93.632,75.718 C93.632,76.2500027 93.7396656,76.6996648 93.955,77.067 C94.1703344,77.4343352 94.4489983,77.7319989 94.791,77.96 C95.1330017,78.1880011 95.5319977,78.3526662 95.988,78.454 C96.4440023,78.5553338 96.9253308,78.606 97.432,78.606 Z M111.53,81.228 C111.200665,81.228 110.858668,81.1963336 110.504,81.133 C110.149332,81.0696664 109.858001,81.0126669 109.63,80.962 L109.63,78.112 C109.883335,78.1880004 110.117666,78.2386665 110.333,78.264 C110.548334,78.2893335 110.757332,78.302 110.96,78.302 C111.796004,78.302 112.435664,77.97267 112.879,77.314 C113.322336,76.65533 113.651666,75.6420068 113.867,74.274 C114.082334,72.9059932 114.215333,71.1516774 114.266,69.011 C114.316667,66.8703226 114.367333,64.3180148 114.418,61.354 L128.212,61.354 L128.212,81 L124.982,81 L124.982,64.204 L117.534,64.204 C117.458,66.5093449 117.375667,68.694323 117.287,70.759 C117.198333,72.823677 116.976668,74.6286589 116.622,76.174 C116.267332,77.7193411 115.697337,78.9479954 114.912,79.86 C114.126663,80.7720046 112.999341,81.228 111.53,81.228 Z M137.826,64.204 L130.796,64.204 L130.796,61.354 L148.086,61.354 L148.086,64.204 L141.056,64.204 L141.056,81 L137.826,81 L137.826,64.204 Z M150.67,61.354 L153.9,61.354 L153.9,77.39 L163.172,61.354 L167.314,61.354 L167.314,81 L164.084,81 L164.084,64.964 L154.812,81 L150.67,81 L150.67,61.354 Z M172.178,61.354 L175.408,61.354 L175.408,69.182 L185.364,69.182 L185.364,61.354 L188.594,61.354 L188.594,81 L185.364,81 L185.364,71.956 L175.408,71.956 L175.408,81 L172.178,81 L172.178,61.354 Z M193.534,61.354 L206.986,61.354 L206.986,64.204 L196.764,64.204 L196.764,81 L193.534,81 L193.534,61.354 Z M220.894,53.868 L238.526,53.868 L238.526,56.908 L224.504,56.908 L224.504,81 L220.894,81 L220.894,53.868 Z M241.148,61.354 L244.378,61.354 L244.378,64.014 L244.454,64.014 C244.986003,62.9246612 245.821994,62.1330025 246.962,61.639 C248.102006,61.1449975 249.355993,60.898 250.724,60.898 C252.244008,60.898 253.567661,61.1766639 254.695,61.734 C255.822339,62.2913361 256.759663,63.0449952 257.507,63.995 C258.254337,64.9450048 258.817998,66.0406605 259.198,67.282 C259.578002,68.5233395 259.768,69.8406597 259.768,71.234 C259.768,72.6526738 259.584335,73.9763272 259.217,75.205 C258.849665,76.4336728 258.292337,77.5103287 257.545,78.435 C256.797663,79.3596713 255.860339,80.0879973 254.733,80.62 C253.605661,81.1520027 252.294674,81.418 250.8,81.418 C250.293331,81.418 249.74867,81.3673338 249.166,81.266 C248.58333,81.1646662 248.00067,81.0000011 247.418,80.772 C246.83533,80.5439989 246.284336,80.2336686 245.765,79.841 C245.245664,79.4483314 244.808668,78.9606696 244.454,78.378 L244.378,78.378 L244.378,88.486 L241.148,88.486 L241.148,61.354 Z M250.458,78.606 C251.547339,78.606 252.471996,78.3906688 253.232,77.96 C253.992004,77.5293312 254.599998,76.9593369 255.056,76.25 C255.512002,75.5406631 255.841332,74.7300046 256.044,73.818 C256.246668,72.9059954 256.348,71.9686715 256.348,71.006 C256.348,70.0939954 256.227668,69.2010044 255.987,68.327 C255.746332,67.4529956 255.379002,66.6740034 254.885,65.99 C254.390998,65.3059966 253.757671,64.7613354 252.985,64.356 C252.212329,63.9506646 251.306672,63.748 250.268,63.748 C249.178661,63.748 248.254004,63.9633312 247.494,64.394 C246.733996,64.8246688 246.113336,65.3883298 245.632,66.085 C245.150664,66.7816701 244.802334,67.5733289 244.587,68.46 C244.371666,69.3466711 244.264,70.2459954 244.264,71.158 C244.264,72.1206715 244.377999,73.0516622 244.606,73.951 C244.834001,74.8503378 245.194998,75.6419966 245.689,76.326 C246.183002,77.0100034 246.822663,77.5609979 247.608,77.979 C248.393337,78.3970021 249.343328,78.606 250.458,78.606 Z M265.582,88.828 C265.201998,88.828 264.822002,88.8026669 264.442,88.752 C264.061998,88.7013331 263.694668,88.6126673 263.34,88.486 L263.34,85.522 C263.644002,85.6233338 263.954332,85.7246662 264.271,85.826 C264.587668,85.9273338 264.910665,85.978 265.24,85.978 C265.89867,85.978 266.430665,85.8260015 266.836,85.522 C267.241335,85.2179985 267.595998,84.7746696 267.9,84.192 L269.23,80.886 L261.44,61.354 L265.088,61.354 L270.826,77.428 L270.902,77.428 L276.412,61.354 L279.832,61.354 L271.282,83.584 C270.901998,84.5466715 270.528335,85.35733 270.161,86.016 C269.793665,86.67467 269.388336,87.2129979 268.945,87.631 C268.501664,88.0490021 268.007669,88.352999 267.463,88.543 C266.918331,88.733001 266.291337,88.828 265.582,88.828 Z M282.568,61.354 L298.604,61.354 L298.604,81 L295.374,81 L295.374,64.204 L285.798,64.204 L285.798,81 L282.568,81 L282.568,61.354 Z M303.468,61.354 L319.504,61.354 L319.504,81 L316.274,81 L316.274,64.204 L306.698,64.204 L306.698,81 L303.468,81 L303.468,61.354 Z" transform="translate(25 102)"/>
  </g>
</svg>
